<svg xmlns="http://www.w3.org/2000/svg" xmlns:xlink="http://www.w3.org/1999/xlink" width="57.516" height="38.812" viewBox="0 0 57.516 38.812">
  <defs>
    <clipPath id="clip-path">
      <rect id="Rectangle_4613" data-name="Rectangle 4613" width="25" height="30" transform="translate(0 0)" fill="none"/>
    </clipPath>
    <filter id="Path_21301" x="44.107" y="18.475" width="13.409" height="13.409" filterUnits="userSpaceOnUse">
      <feOffset dy="2" input="SourceAlpha"/>
      <feGaussianBlur stdDeviation="1" result="blur"/>
      <feFlood flood-opacity="0.2"/>
      <feComposite operator="in" in2="blur"/>
      <feComposite in="SourceGraphic"/>
    </filter>
    <filter id="Path_21301-2" x="44.107" y="18.475" width="13.409" height="13.409" filterUnits="userSpaceOnUse">
      <feOffset dy="3" input="SourceAlpha"/>
      <feGaussianBlur stdDeviation="2" result="blur-2"/>
      <feFlood flood-color="#fff" flood-opacity="0.302" result="color"/>
      <feComposite operator="out" in="SourceGraphic" in2="blur-2"/>
      <feComposite operator="in" in="color"/>
      <feComposite operator="in" in2="SourceGraphic"/>
    </filter>
    <linearGradient id="linear-gradient" x1="0.5" y1="0.543" x2="0.5" gradientUnits="objectBoundingBox">
      <stop offset="0" stop-color="#f53c3c"/>
      <stop offset="1" stop-color="#ff9696"/>
    </linearGradient>
    <filter id="Path_21331" x="0" y="0" width="38.812" height="38.812" filterUnits="userSpaceOnUse">
      <feOffset dy="3" input="SourceAlpha"/>
      <feGaussianBlur stdDeviation="1.5" result="blur-3"/>
      <feFlood flood-opacity="0.2"/>
      <feComposite operator="in" in2="blur-3"/>
      <feComposite in="SourceGraphic"/>
    </filter>
  </defs>
  <g id="Group_10616" data-name="Group 10616" transform="translate(-25.5 -40.5)">
    <g id="Group_10601" data-name="Group 10601" transform="translate(56.629 41.812)">
      <g id="Group_10600" data-name="Group 10600" transform="translate(0.582 18.164)">
        <g id="Group_10513" data-name="Group 10513">
          <path id="Path_21306" data-name="Path 21306" d="M5.762,2.788c-.473,0-.966-.022-1.464-.066a.185.185,0,0,1,.032-.369c.487.043.969.065,1.431.065.486,0,.989-.024,1.495-.071a.185.185,0,0,1,.034.369C6.773,2.764,6.259,2.788,5.762,2.788Zm-4.37-.54a.186.186,0,0,1-.042,0C.439,2.034-.5,1.769-1.518,1.432A.185.185,0,0,1-1.635,1.2.185.185,0,0,1-1.4,1.081c1.008.333,1.935.595,2.834.8a.185.185,0,0,1-.041.366Zm8.8-.036a.185.185,0,0,1-.045-.365,22.275,22.275,0,0,0,2.8-.9.185.185,0,1,1,.136.344,22.648,22.648,0,0,1-2.843.913A.186.186,0,0,1,10.191,2.212Z" transform="translate(1.645 4.806)"/>
          <g data-type="innerShadowGroup">
            <g transform="matrix(1, 0, 0, 1, -31.71, -19.48)" filter="url(#Path_21301)">
              <path id="Path_21301-3" data-name="Path 21301" d="M3.7,7.409a3.7,3.7,0,1,1,3.7-3.7A3.7,3.7,0,0,1,3.7,7.409Z" transform="translate(47.11 19.48)"/>
            </g>
            <g transform="matrix(1, 0, 0, 1, -31.71, -19.48)" filter="url(#Path_21301-2)">
              <path id="Path_21301-4" data-name="Path 21301" d="M3.7,7.409a3.7,3.7,0,1,1,3.7-3.7A3.7,3.7,0,0,1,3.7,7.409Z" transform="translate(47.11 19.48)" fill="#fff"/>
            </g>
          </g>
        </g>
      </g>
    </g>
    <g transform="matrix(1, 0, 0, 1, 25.5, 40.5)" filter="url(#Path_21331)">
      <path id="Path_21331-2" data-name="Path 21331" d="M14.906,0A14.906,14.906,0,1,0,29.812,14.906,14.906,14.906,0,0,0,14.906,0Z" transform="translate(4.5 1.5)" fill="url(#linear-gradient)"/>
    </g>
  </g>
</svg>
