<svg id="ewK40PD75Ya1" xmlns="http://www.w3.org/2000/svg" xmlns:xlink="http://www.w3.org/1999/xlink" viewBox="0 0 136.362 38.812" shape-rendering="geometricPrecision" text-rendering="geometricPrecision"><defs><filter id="ewK40PD75Ya4-filter" x="-150%" width="400%" y="-150%" height="400%"><feComponentTransfer id="ewK40PD75Ya4-filter-opacity-0" result="result"><feFuncA id="ewK40PD75Ya4-filter-opacity-0-A" type="table" tableValues="0 1"/></feComponentTransfer><feComponentTransfer id="ewK40PD75Ya4-filter-opacity-1" result="result"><feFuncA id="ewK40PD75Ya4-filter-opacity-1-A" type="table" tableValues="0 1"/></feComponentTransfer></filter><filter id="ewK40PD75Ya5-filter" x="-150%" width="400%" y="-150%" height="400%"><feComponentTransfer id="ewK40PD75Ya5-filter-opacity-0" result="result"><feFuncA id="ewK40PD75Ya5-filter-opacity-0-A" type="table" tableValues="0 1"/></feComponentTransfer></filter><filter id="ewK40PD75Ya6-filter" x="-150%" width="400%" y="-150%" height="400%"><feComponentTransfer id="ewK40PD75Ya6-filter-opacity-0" result="result"><feFuncA id="ewK40PD75Ya6-filter-opacity-0-A" type="table" tableValues="0 1"/></feComponentTransfer></filter><filter id="ewK40PD75Ya7-filter" x="-150%" width="400%" y="-150%" height="400%"><feComponentTransfer id="ewK40PD75Ya7-filter-opacity-0" result="result"><feFuncA id="ewK40PD75Ya7-filter-opacity-0-A" type="table" tableValues="0 1"/></feComponentTransfer></filter><filter id="ewK40PD75Ya8-filter" x="-150%" width="400%" y="-150%" height="400%"><feComponentTransfer id="ewK40PD75Ya8-filter-opacity-0" result="result"><feFuncA id="ewK40PD75Ya8-filter-opacity-0-A" type="table" tableValues="0 1"/></feComponentTransfer></filter><filter id="ewK40PD75Ya9-filter" x="-150%" width="400%" y="-150%" height="400%"><feComponentTransfer id="ewK40PD75Ya9-filter-opacity-0" result="result"><feFuncA id="ewK40PD75Ya9-filter-opacity-0-A" type="table" tableValues="0 1"/></feComponentTransfer></filter><linearGradient id="ewK40PD75Ya18-fill" x1="0.5" y1="0.543" x2="0.5" y2="0" spreadMethod="pad" gradientUnits="objectBoundingBox" gradientTransform="translate(0 0)"><stop id="ewK40PD75Ya18-fill-0" offset="0%" stop-color="#f53c3c"/><stop id="ewK40PD75Ya18-fill-1" offset="100%" stop-color="#ff9696"/></linearGradient></defs><g transform="translate(-25.5-85.227)"><g transform="translate(40-9.016)"><path id="ewK40PD75Ya4" d="M1.7,-17.415h5.3c.334295-.009427.657694.119354.894.356.237368.234333.366988.556571.358.89.007338.32346-.122752.634877-.358.857-.239319.230904-.561588.35563-.894.346h-5.3c-.334295.009427-.657694-.119354-.894-.356-.237368-.234333-.366988-.556571-.358-.89-.007338-.32346.122752-.634877.358-.857.239319-.230904.561588-.35563.894-.346ZM4.093,-20.2c.357782-.012474.703717.129177.95.389.246454.260996.379179.609176.369.968v9.9c-.007257.178769.035329.356036.123.512.077763.129784.195216.231109.335.289.145167.060036.300914.090301.458.089.169251.002097.336997-.031998.492-.1.162307-.069395.337515-.103482.514-.1.223449.007067.43224.112928.57.289.1822.225413.273832.510648.257.8-.012873.446391-.277474.846973-.683,1.034-.442679.263669-.94875.40194-1.464.4-.347694-.002597-.694816-.028656-1.039-.078-.380356-.051397-.746183-.180032-1.075-.378-.358516-.225642-.648344-.545214-.838-.924-.247567-.535749-.332-1.713-.332-1.713v-10.016c-.009181-.362862.132375-.713312.391-.968.256052-.259269.607704-.401449.972-.393Z" transform="matrix(.999975 0.00703-.00703 0.999975 50.949621 122.801152)" opacity="0" filter="url(#ewK40PD75Ya4-filter)"/><path id="ewK40PD75Ya5" d="M12.5,-5.73c-.360726.01092-.70944-.130234-.961-.389-.252593-.25785-.389724-.607174-.38-.968v-9.193c-.009724-.360826.127407-.71015.38-.968.25156-.258766.600274-.39992.961-.389.360726-.01092.70944.130234.961.389.252593.25785.389724.607174.38.968v2.092l-.156-1.491c.158641-.348344.373888-.668003.637-.946.258376-.272638.555986-.505199.883-.69.328893-.186009.682373-.324708,1.05-.412.36578-.088369.740697-.133346,1.117-.134.409411-.012953.809924.121142,1.129.378.283259.208879.452675.538094.458.89.037464.391392-.101904.779054-.38,1.057-.226954.205076-.521132.319973-.827.323-.265185.003592-.52807-.049599-.771-.156-.250235-.107793-.520581-.160976-.793-.156-.282483.003117-.560912.067606-.816.189-.292994.139433-.552281.340721-.76.59-.245771.292717-.435291.628361-.559.99-.150119.448028-.221837.918593-.212,1.391v5.275c.009724.360826-.127407.71015-.38.968-.25104.259868-.599822.402139-.961.392Z" transform="translate(51.027 122.832)" opacity="0" filter="url(#ewK40PD75Ya5-filter)"/><path id="ewK40PD75Ya6" d="M30.173,-17.637c.360726-.01092.70944.130234.961.389.252593.25785.389724.607174.38.968v9.46c.056638,1.138047-.210709,2.268814-.771,3.261-.48725.78598-1.210818,1.39753-2.067,1.747-.923812.367246-1.910977.548708-2.905.534-.50861-.002179-1.01647-.039267-1.52-.111-.452525-.052391-.896077-.164708-1.319-.334-.37944-.136653-.705754-.390142-.932-.724-.169962-.277504-.206657-.616559-.1-.924.08811-.368636.32192-.685796.648-.879.289612-.155574.632951-.17605.939-.056q.358.111.939.345c.42788.163192.883137.242633,1.341.234.583222.019667,1.164784-.073017,1.713-.273.444715-.176689.810059-.508981,1.028-.935.256476-.56123.375104-1.17563.346-1.792v-1.496l.469.534c-.232853.463484-.555821.875863-.95,1.213-.398016.32864-.857678.57445-1.352.723-.58019.171572-1.183042.254178-1.788.245-.726612.016923-1.443194-.172016-2.067-.545-.590518-.365871-1.066553-.890064-1.374-1.513-.337776-.688714-.506441-1.448051-.492-2.215v-6.5c-.009724-.360826.127407-.71015.38-.968.25156-.258766.600274-.39992.961-.389.360726-.01092.70944.130234.961.389.252593.25785.389724.607174.38.968v5.7c-.077517.737776.15297,1.474828.637,2.037.494371.417955,1.130821.62927,1.777.59.458155.015148.912467-.088183,1.319-.3.361284-.203736.650289-.514757.827-.89.20589-.450001.305459-.941347.291-1.436v-5.7c-.009724-.360826.127407-.71015.38-.968.251323-.258505.599619-.399637.96-.389Z" transform="translate(51.027 122.832)" opacity="0" filter="url(#ewK40PD75Ya6-filter)"/><path id="ewK40PD75Ya7" d="M44.537,-22.2c.181365-.00642.356929.06446.483.195.124136.128071.191529.300698.187.479v15.126c.001673.179428-.070674.351614-.2.476-.123521.129981-.295706.20248-.475.2-.182224.005641-.358107-.067188-.483-.2-.123101-.127519-.190387-.29879-.187-.476v-2.646l.391-.317c-.008269.460008-.124019.911706-.338,1.319-.239542.471482-.561245.896468-.95,1.255-.418704.390867-.902699.705294-1.43.929-.558762.238079-1.160654.358253-1.768.353-.951634.012662-1.885775-.256273-2.685-.773-.803765-.527811-1.453173-1.259344-1.882-2.12-.473567-.943766-.711354-1.988243-.693-3.044-.018646-1.057387.219134-2.103554.693-3.049.428393-.856585,1.077327-1.583529,1.88-2.106.795066-.51113,1.722889-.777166,2.668-.765.601451-.003105,1.197907.109261,1.757.331.539154.212028,1.035232.520383,1.464.91.413064.373098.752291.820538,1,1.319.241206.481769.366536,1.013222.366,1.552l-.469-.345v-7.935c-.001001-.174593.066496-.342618.188-.468.124893-.132812.300776-.205641.483-.2ZM39.889,-6.754c.748505.014187,1.483993-.196947,2.111-.606.620107-.417006,1.116209-.993604,1.436-1.669.357705-.751912.536375-1.576463.522-2.409.015527-.832008-.163207-1.65617-.522-2.407-.322734-.673758-.821683-1.247687-1.444-1.661-.625761-.407822-1.359176-.61921-2.106-.607-.739671-.010132-1.465458.201265-2.084.607-.623734.41425-1.125385.987713-1.453,1.661-.364422.749203-.546379,1.57401-.531,2.407-.013133.828273.168767,1.64802.531,2.393.326896.677453.827575,1.256115,1.451,1.677.618217.411216,1.346597.625301,2.089.614Z" transform="translate(51.027 123.832)" opacity="0" filter="url(#ewK40PD75Ya7-filter)"/><path id="ewK40PD75Ya8" d="M59.806,-11.422c.017465,1.057725-.237362,2.102171-.74,3.033-.471224.870827-1.166527,1.599963-2.014,2.112-.872414.520147-1.872422.787116-2.888.771-1.012793.013999-2.009662-.252872-2.88-.771-.852444-.51127-1.55344-1.240224-2.031-2.112-.508111-.929077-.766204-1.974196-.749-3.033-.018424-1.064029.239658-2.11462.749-3.049.478094-.871909,1.178929-1.601385,2.031-2.114.869824-.519559,1.866918-.787182,2.88-.773c1.015875-.016361,2.016125.251365,2.888.773.847094.513385,1.542235,1.24304,2.014,2.114.503998.936079.758824,1.986031.74,3.049Zm-1.341,0c.016731-.840489-.17534-1.671998-.559-2.42-.353343-.678991-.881523-1.251359-1.53-1.658-.663881-.410453-1.431587-.621815-2.212-.609-.776262-.009852-1.539304.201371-2.2.609-.654221.406528-1.188497.979804-1.548,1.661-.38887.746384-.583847,1.578558-.567,2.42-.015543.834921.179454,1.660309.567,2.4.359503.681196.893779,1.254472,1.548,1.661.660696.407629,1.423738.618852,2.2.609.780413.012815,1.548119-.198547,2.212-.609.649243-.407328,1.177817-.980783,1.531-1.661.382466-.742307.574226-1.568113.558-2.403Z" transform="translate(51.027 123.832)" opacity="0" filter="url(#ewK40PD75Ya8-filter)"/><path id="ewK40PD75Ya9" d="M62.46,-7.527c-.106539-.15447-.162131-.338378-.159-.526.016035-.175955.117289-.332879.271-.42.117537-.093194.266747-.136952.416-.122.170633.015276.328367.097197.439.228.392453.514167.888052.94062,1.455,1.252.631219.329576,1.336184.492393,2.048.473.424714-.003776.846193-.074304,1.249-.209.387444-.122518.736707-.342961,1.014-.64.272947-.306091.416361-.706215.4-1.116.019072-.405395-.124983-.801547-.4-1.1-.295506-.293976-.650912-.520795-1.042-.665-.443513-.172178-.897816-.31515-1.36-.428q-.76-.2-1.469-.453c-.448201-.156091-.873093-.372406-1.263-.643-.359539-.249534-.660776-.573969-.883-.951-.230037-.414786-.344035-.883903-.33-1.358-.010029-.587182.167973-1.162184.508-1.641.356297-.488718.837901-.872205,1.394-1.11.630529-.274385,1.312441-.410767,2-.4.409947.003044.818347.050657,1.218.142.442429.09999.869066.260147,1.268.476.430248.232976.813157.544323,1.129.918.125915.11261.198526.273082.2.442-.00336.183428-.088435.355779-.232.47-.11927.087772-.265075.131902-.413.125-.147244-.002827-.286839-.066115-.386-.175-.345883-.398835-.780061-.711456-1.268-.913-.507713-.207265-1.051636-.31129-1.6-.306-.41245-.002945-.822363.064698-1.212.2-.365364.123226-.692634.338879-.95.626-.259719.311034-.393193.708244-.374,1.113.007521.395237.166449.772513.444,1.054.315746.298558.69043.527796,1.1.673.503111.190556,1.015806.354778,1.536.492.464365.113919.922345.252448,1.372.415.411832.144899.801296.346868,1.157.6.333901.243504.60757.560275.8.926.213098.435072.316114.915811.3,1.4.014979.610029-.177127,1.207143-.545,1.694-.380388.486086-.883747.861707-1.458,1.088-.64535.25904-1.335667.387519-2.031.378-.801305-.000285-1.594718-.158288-2.335-.465-.791015-.333352-1.482639-.865159-2.008-1.544Z" transform="translate(51.027 123.752)" opacity="0" filter="url(#ewK40PD75Ya9-filter)"/></g><g transform="translate(57.576 104.703)"><path id="ewK40PD75Ya11" d="M5.762,2.788c-.473,0-.966-.022-1.464-.066-.101897-.008837-.177337-.098603-.1685-.2005s.098603-.177337.2005-.1685c.487.043.969.065,1.431.065.486,0,.989-.024,1.495-.071.101897-.009389.192111.065603.2015.1675s-.065603.192111-.1675.2015c-.517.048-1.031.072-1.528.072Zm-4.37-.54c-.013955.001586-.028045.001586-.042,0-.911-.214-1.85-.479-2.868-.816-.095883-.032324-.148008-.135683-.117-.232.015093-.047147.048452-.086277.092616-.108641s.095448-.026095.142384-.010359c1.008.333,1.935.595,2.834.8.093241.019655.153999.127457.145691.201617s-.186691.164383-.186691.164383Zm8.8-.036c-.094305.001194-.174412-.068744-.185952-.162348s.049181-.180905.140952-.202652c.952141-.237989,1.887513-.538644,2.8-.9.061814-.026046.132884-.016592.185739.024708s.079215.107974.068891.174252-.055717.121775-.11863.14504c-.926551.366542-1.876281.671538-2.843.913-.015902.004844-.032383.007535-.049.008Z" transform="matrix(1.04313 0.01858-.01522 0.854514-12.061841 6.671961)"/><g id="ewK40PD75Ya12" transform="translate(-16.853999 2.957241)"><g transform="translate(-32.08-19.48)"><path d="M3.7,7.409c-2.043454,0-3.7-1.656546-3.7-3.7s1.656546-3.7,3.7-3.7s3.7,1.656546,3.7,3.7-1.656546,3.7-3.7,3.7Z" transform="translate(47.47 19.48)"/></g><g transform="translate(-32.08-19.48)"><path d="M3.7,7.409c-2.043454,0-3.7-1.656546-3.7-3.7s1.656546-3.7,3.7-3.7s3.7,1.656546,3.7,3.7-1.656546,3.7-3.7,3.7Z" transform="translate(47.47 19.48)" fill="#fff"/></g></g></g><g transform="translate(25.5 85.23)"><path d="M14.906,0C6.673644,0,0,6.673644,0,14.906s6.673644,14.906,14.906,14.906s14.906-6.673644,14.906-14.906c0-3.953317-1.570449-7.744716-4.365866-10.540134s-6.586817-4.365866-10.540134-4.365866Z" transform="translate(4.5 1.5)" fill="url(#ewK40PD75Ya18-fill)"/></g></g>
<script><![CDATA[
!function(t,n){"object"==typeof exports&&"undefined"!=typeof module?module.exports=n():"function"==typeof __SVGATOR_DEFINE__&&__SVGATOR_DEFINE__.amd?__SVGATOR_DEFINE__(n):((t="undefined"!=typeof globalThis?globalThis:t||self).__SVGATOR_PLAYER__=t.__SVGATOR_PLAYER__||{},t.__SVGATOR_PLAYER__["5c7f360c"]=n())}(this,(function(){"use strict";function t(t,n){var e=Object.keys(t);if(Object.getOwnPropertySymbols){var r=Object.getOwnPropertySymbols(t);n&&(r=r.filter((function(n){return Object.getOwnPropertyDescriptor(t,n).enumerable}))),e.push.apply(e,r)}return e}function n(n){for(var e=1;e<arguments.length;e++){var r=null!=arguments[e]?arguments[e]:{};e%2?t(Object(r),!0).forEach((function(t){u(n,t,r[t])})):Object.getOwnPropertyDescriptors?Object.defineProperties(n,Object.getOwnPropertyDescriptors(r)):t(Object(r)).forEach((function(t){Object.defineProperty(n,t,Object.getOwnPropertyDescriptor(r,t))}))}return n}function e(t){return(e="function"==typeof Symbol&&"symbol"==typeof Symbol.iterator?function(t){return typeof t}:function(t){return t&&"function"==typeof Symbol&&t.constructor===Symbol&&t!==Symbol.prototype?"symbol":typeof t})(t)}function r(t,n){if(!(t instanceof n))throw new TypeError("Cannot call a class as a function")}function i(t,n){for(var e=0;e<n.length;e++){var r=n[e];r.enumerable=r.enumerable||!1,r.configurable=!0,"value"in r&&(r.writable=!0),Object.defineProperty(t,r.key,r)}}function o(t,n,e){return n&&i(t.prototype,n),e&&i(t,e),t}function u(t,n,e){return n in t?Object.defineProperty(t,n,{value:e,enumerable:!0,configurable:!0,writable:!0}):t[n]=e,t}function a(t){return(a=Object.setPrototypeOf?Object.getPrototypeOf:function(t){return t.__proto__||Object.getPrototypeOf(t)})(t)}function l(t,n){return(l=Object.setPrototypeOf||function(t,n){return t.__proto__=n,t})(t,n)}function s(){if("undefined"==typeof Reflect||!Reflect.construct)return!1;if(Reflect.construct.sham)return!1;if("function"==typeof Proxy)return!0;try{return Boolean.prototype.valueOf.call(Reflect.construct(Boolean,[],(function(){}))),!0}catch(t){return!1}}function f(t,n,e){return(f=s()?Reflect.construct:function(t,n,e){var r=[null];r.push.apply(r,n);var i=new(Function.bind.apply(t,r));return e&&l(i,e.prototype),i}).apply(null,arguments)}function c(t,n){if(n&&("object"==typeof n||"function"==typeof n))return n;if(void 0!==n)throw new TypeError("Derived constructors may only return object or undefined");return function(t){if(void 0===t)throw new ReferenceError("this hasn't been initialised - super() hasn't been called");return t}(t)}function h(t,n,e){return(h="undefined"!=typeof Reflect&&Reflect.get?Reflect.get:function(t,n,e){var r=function(t,n){for(;!Object.prototype.hasOwnProperty.call(t,n)&&null!==(t=a(t)););return t}(t,n);if(r){var i=Object.getOwnPropertyDescriptor(r,n);return i.get?i.get.call(e):i.value}})(t,n,e||t)}function v(t){return function(t){if(Array.isArray(t))return y(t)}(t)||function(t){if("undefined"!=typeof Symbol&&null!=t[Symbol.iterator]||null!=t["@@iterator"])return Array.from(t)}(t)||function(t,n){if(!t)return;if("string"==typeof t)return y(t,n);var e=Object.prototype.toString.call(t).slice(8,-1);"Object"===e&&t.constructor&&(e=t.constructor.name);if("Map"===e||"Set"===e)return Array.from(t);if("Arguments"===e||/^(?:Ui|I)nt(?:8|16|32)(?:Clamped)?Array$/.test(e))return y(t,n)}(t)||function(){throw new TypeError("Invalid attempt to spread non-iterable instance.\nIn order to be iterable, non-array objects must have a [Symbol.iterator]() method.")}()}function y(t,n){(null==n||n>t.length)&&(n=t.length);for(var e=0,r=new Array(n);e<n;e++)r[e]=t[e];return r}Number.isInteger||(Number.isInteger=function(t){return"number"==typeof t&&isFinite(t)&&Math.floor(t)===t}),Number.EPSILON||(Number.EPSILON=2220446049250313e-31);var g=d(Math.pow(10,-6));function d(t){var n=arguments.length>1&&void 0!==arguments[1]?arguments[1]:6;if(Number.isInteger(t))return t;var e=Math.pow(10,n);return Math.round((+t+Number.EPSILON)*e)/e}function p(t,n){var e=arguments.length>2&&void 0!==arguments[2]?arguments[2]:g;return Math.abs(t-n)<e}var m=Math.PI/180;function b(t){return t}function w(t,n,e){var r=1-e;return 3*e*r*(t*r+n*e)+e*e*e}function A(){var t=arguments.length>0&&void 0!==arguments[0]?arguments[0]:0,n=arguments.length>1&&void 0!==arguments[1]?arguments[1]:0,e=arguments.length>2&&void 0!==arguments[2]?arguments[2]:1,r=arguments.length>3&&void 0!==arguments[3]?arguments[3]:1;return t<0||t>1||e<0||e>1?null:p(t,n)&&p(e,r)?b:function(i){if(i<=0)return t>0?i*n/t:0===n&&e>0?i*r/e:0;if(i>=1)return e<1?1+(i-1)*(r-1)/(e-1):1===e&&t<1?1+(i-1)*(n-1)/(t-1):1;for(var o,u=0,a=1;u<a;){var l=w(t,e,o=(u+a)/2);if(p(i,l))break;l<i?u=o:a=o}return w(n,r,o)}}function _(){return 1}function x(t){return 1===t?1:0}function k(){var t=arguments.length>0&&void 0!==arguments[0]?arguments[0]:1,n=arguments.length>1&&void 0!==arguments[1]?arguments[1]:0;if(1===t){if(0===n)return x;if(1===n)return _}var e=1/t;return function(t){return t>=1?1:(t+=n*e)-t%e}}var S=Math.sin,O=Math.cos,j=Math.acos,E=Math.asin,M=Math.tan,P=Math.atan2,I=Math.PI/180,R=180/Math.PI,F=Math.sqrt,N=function(){function t(){var n=arguments.length>0&&void 0!==arguments[0]?arguments[0]:1,e=arguments.length>1&&void 0!==arguments[1]?arguments[1]:0,i=arguments.length>2&&void 0!==arguments[2]?arguments[2]:0,o=arguments.length>3&&void 0!==arguments[3]?arguments[3]:1,u=arguments.length>4&&void 0!==arguments[4]?arguments[4]:0,a=arguments.length>5&&void 0!==arguments[5]?arguments[5]:0;r(this,t),this.m=[n,e,i,o,u,a],this.i=null,this.w=null,this.s=null}return o(t,[{key:"determinant",get:function(){var t=this.m;return t[0]*t[3]-t[1]*t[2]}},{key:"isIdentity",get:function(){if(null===this.i){var t=this.m;this.i=1===t[0]&&0===t[1]&&0===t[2]&&1===t[3]&&0===t[4]&&0===t[5]}return this.i}},{key:"point",value:function(t,n){var e=this.m;return{x:e[0]*t+e[2]*n+e[4],y:e[1]*t+e[3]*n+e[5]}}},{key:"translateSelf",value:function(){var t=arguments.length>0&&void 0!==arguments[0]?arguments[0]:0,n=arguments.length>1&&void 0!==arguments[1]?arguments[1]:0;if(!t&&!n)return this;var e=this.m;return e[4]+=e[0]*t+e[2]*n,e[5]+=e[1]*t+e[3]*n,this.w=this.s=this.i=null,this}},{key:"rotateSelf",value:function(){var t=arguments.length>0&&void 0!==arguments[0]?arguments[0]:0;if(t%=360){var n=S(t*=I),e=O(t),r=this.m,i=r[0],o=r[1];r[0]=i*e+r[2]*n,r[1]=o*e+r[3]*n,r[2]=r[2]*e-i*n,r[3]=r[3]*e-o*n,this.w=this.s=this.i=null}return this}},{key:"scaleSelf",value:function(){var t=arguments.length>0&&void 0!==arguments[0]?arguments[0]:1,n=arguments.length>1&&void 0!==arguments[1]?arguments[1]:1;if(1!==t||1!==n){var e=this.m;e[0]*=t,e[1]*=t,e[2]*=n,e[3]*=n,this.w=this.s=this.i=null}return this}},{key:"skewSelf",value:function(t,n){if(n%=360,(t%=360)||n){var e=this.m,r=e[0],i=e[1],o=e[2],u=e[3];t&&(t=M(t*I),e[2]+=r*t,e[3]+=i*t),n&&(n=M(n*I),e[0]+=o*n,e[1]+=u*n),this.w=this.s=this.i=null}return this}},{key:"resetSelf",value:function(){var t=arguments.length>0&&void 0!==arguments[0]?arguments[0]:1,n=arguments.length>1&&void 0!==arguments[1]?arguments[1]:0,e=arguments.length>2&&void 0!==arguments[2]?arguments[2]:0,r=arguments.length>3&&void 0!==arguments[3]?arguments[3]:1,i=arguments.length>4&&void 0!==arguments[4]?arguments[4]:0,o=arguments.length>5&&void 0!==arguments[5]?arguments[5]:0,u=this.m;return u[0]=t,u[1]=n,u[2]=e,u[3]=r,u[4]=i,u[5]=o,this.w=this.s=this.i=null,this}},{key:"recomposeSelf",value:function(){var t=arguments.length>0&&void 0!==arguments[0]?arguments[0]:null,n=arguments.length>1&&void 0!==arguments[1]?arguments[1]:null,e=arguments.length>2&&void 0!==arguments[2]?arguments[2]:null,r=arguments.length>3&&void 0!==arguments[3]?arguments[3]:null,i=arguments.length>4&&void 0!==arguments[4]?arguments[4]:null;return this.isIdentity||this.resetSelf(),t&&(t.x||t.y)&&this.translateSelf(t.x,t.y),n&&this.rotateSelf(n),e&&(e.x&&this.skewSelf(e.x,0),e.y&&this.skewSelf(0,e.y)),!r||1===r.x&&1===r.y||this.scaleSelf(r.x,r.y),i&&(i.x||i.y)&&this.translateSelf(i.x,i.y),this}},{key:"decompose",value:function(){var t=arguments.length>0&&void 0!==arguments[0]?arguments[0]:0,n=arguments.length>1&&void 0!==arguments[1]?arguments[1]:0,e=this.m,r=e[0]*e[0]+e[1]*e[1],i=[[e[0],e[1]],[e[2],e[3]]],o=F(r);if(0===o)return{origin:{x:d(e[4]),y:d(e[5])},translate:{x:d(t),y:d(n)},scale:{x:0,y:0},skew:{x:0,y:0},rotate:0};i[0][0]/=o,i[0][1]/=o;var u=e[0]*e[3]-e[1]*e[2]<0;u&&(o=-o);var a=i[0][0]*i[1][0]+i[0][1]*i[1][1];i[1][0]-=i[0][0]*a,i[1][1]-=i[0][1]*a;var l=F(i[1][0]*i[1][0]+i[1][1]*i[1][1]);if(0===l)return{origin:{x:d(e[4]),y:d(e[5])},translate:{x:d(t),y:d(n)},scale:{x:d(o),y:0},skew:{x:0,y:0},rotate:0};i[1][0]/=l,i[1][1]/=l,a/=l;var s=0;return i[1][1]<0?(s=j(i[1][1])*R,i[0][1]<0&&(s=360-s)):s=E(i[0][1])*R,u&&(s=-s),a=P(a,F(i[0][0]*i[0][0]+i[0][1]*i[0][1]))*R,u&&(a=-a),{origin:{x:d(e[4]),y:d(e[5])},translate:{x:d(t),y:d(n)},scale:{x:d(o),y:d(l)},skew:{x:d(a),y:0},rotate:d(s)}}},{key:"clone",value:function(){var t=this.m;return new this.constructor(t[0],t[1],t[2],t[3],t[4],t[5])}},{key:"toString",value:function(){var t=arguments.length>0&&void 0!==arguments[0]?arguments[0]:" ";if(null===this.s){var n=this.m.map((function(t){return d(t)}));1===n[0]&&0===n[1]&&0===n[2]&&1===n[3]?this.s="translate("+n[4]+t+n[5]+")":this.s="matrix("+n.join(t)+")"}return this.s}}],[{key:"create",value:function(t){return t?Array.isArray(t)?f(this,v(t)):t instanceof this?t.clone():(new this).recomposeSelf(t.origin,t.rotate,t.skew,t.scale,t.translate):new this}}]),t}();function T(t,n,e){return t>=.5?e:n}function q(t,n,e){return 0===t||n===e?n:t*(e-n)+n}function B(t,n,e){var r=q(t,n,e);return r<=0?0:r}function D(t,n,e){var r=q(t,n,e);return r<=0?0:r>=1?1:r}function L(t,n,e){return 0===t?n:1===t?e:{x:q(t,n.x,e.x),y:q(t,n.y,e.y)}}function C(t,n,e){var r=function(t,n,e){return Math.round(q(t,n,e))}(t,n,e);return r<=0?0:r>=255?255:r}function V(t,n,e){return 0===t?n:1===t?e:{r:C(t,n.r,e.r),g:C(t,n.g,e.g),b:C(t,n.b,e.b),a:q(t,null==n.a?1:n.a,null==e.a?1:e.a)}}function G(t,n){for(var e=[],r=0;r<t;r++)e.push(n);return e}function z(t,n){if(--n<=0)return t;var e=(t=Object.assign([],t)).length;do{for(var r=0;r<e;r++)t.push(t[r])}while(--n>0);return t}var Y,$=function(){function t(n){r(this,t),this.list=n,this.length=n.length}return o(t,[{key:"setAttribute",value:function(t,n){for(var e=this.list,r=0;r<this.length;r++)e[r].setAttribute(t,n)}},{key:"removeAttribute",value:function(t){for(var n=this.list,e=0;e<this.length;e++)n[e].removeAttribute(t)}},{key:"style",value:function(t,n){for(var e=this.list,r=0;r<this.length;r++)e[r].style[t]=n}}]),t}(),U=/-./g,Q=function(t,n){return n.toUpperCase()};function H(t){return"function"==typeof t?t:T}function J(t){return t?"function"==typeof t?t:Array.isArray(t)?function(t){var n=arguments.length>1&&void 0!==arguments[1]?arguments[1]:b;if(!Array.isArray(t))return n;switch(t.length){case 1:return k(t[0])||n;case 2:return k(t[0],t[1])||n;case 4:return A(t[0],t[1],t[2],t[3])||n}return n}(t,null):function(t,n){var e=arguments.length>2&&void 0!==arguments[2]?arguments[2]:b;switch(t){case"linear":return b;case"steps":return k(n.steps||1,n.jump||0)||e;case"bezier":case"cubic-bezier":return A(n.x1||0,n.y1||0,n.x2||0,n.y2||0)||e}return e}(t.type,t.value,null):null}function Z(t,n,e){var r=arguments.length>3&&void 0!==arguments[3]&&arguments[3],i=n.length-1;if(t<=n[0]?.t)return r?[0,0,n[0]?.v]:n[0]?.v;if(t>=n[i].t)return r?[i,1,n[i].v]:n[i].v;var o,u=n[0],a=null;for(o=1;o<=i;o++){if(!(t>n[o].t)){a=n[o];break}u=n[o]}return null==a?r?[i,1,n[i].v]:n[i].v:u.t===a.t?r?[o,1,a.v]:a.v:(t=(t-u.t)/(a.t-u.t),u.e&&(t=u.e(t)),r?[o,t,e(t,u.v,a.v)]:e(t,u.v,a.v))}function K(t,n){var e=arguments.length>2&&void 0!==arguments[2]?arguments[2]:null;return t&&t.length?"function"!=typeof n?null:("function"!=typeof e&&(e=null),function(r){var i=Z(r,t,n);return null!=i&&e&&(i=e(i)),i}):null}function W(t,n){return t.t-n.t}function X(t,n,r,i,o){var u,a="@"===r[0],l="#"===r[0],s=Y[r],f=T;switch(a?(u=r.substr(1),r=u.replace(U,Q)):l&&(r=r.substr(1)),e(s)){case"function":if(f=s(i,o,Z,J,r,a,n,t),l)return f;break;case"string":f=K(i,H(s));break;case"object":if((f=K(i,H(s.i),s.f))&&"function"==typeof s.u)return s.u(n,f,r,a,t)}return f?function(t,n,e){if(arguments.length>3&&void 0!==arguments[3]&&arguments[3])return t instanceof $?function(r){return t.style(n,e(r))}:function(r){return t.style[n]=e(r)};if(Array.isArray(n)){var r=n.length;return function(i){var o=e(i);if(null==o)for(var u=0;u<r;u++)t[u].removeAttribute(n);else for(var a=0;a<r;a++)t[a].setAttribute(n,o)}}return function(r){var i=e(r);null==i?t.removeAttribute(n):t.setAttribute(n,i)}}(n,r,f,a):null}function tt(t,n,r,i){if(!i||"object"!==e(i))return null;var o=null,u=null;return Array.isArray(i)?u=function(t){if(!t||!t.length)return null;for(var n=0;n<t.length;n++)t[n].e&&(t[n].e=J(t[n].e));return t.sort(W)}(i):(u=i.keys,o=i.data||null),u?X(t,n,r,u,o):null}function nt(t,n,e){if(!e)return null;var r=[];for(var i in e)if(e.hasOwnProperty(i)){var o=tt(t,n,i,e[i]);o&&r.push(o)}return r.length?r:null}function et(t,n){if(!n.settings.duration||n.settings.duration<0)return null;var e,r,i,o,u,a=function(t,n){if(!n)return null;var e=[];if(Array.isArray(n))for(var r=n.length,i=0;i<r;i++){var o=n[i];if(2===o.length){var u=null;if("string"==typeof o[0])u=t.getElementById(o[0]);else if(Array.isArray(o[0])){u=[];for(var a=0;a<o[0]?.length;a++)if("string"==typeof o[0][a]){var l=t.getElementById(o[0][a]);l&&u.push(l)}u=u.length?1===u.length?u[0]:new $(u):null}if(u){var s=nt(t,u,o[1]);s&&(e=e.concat(s))}}}else for(var f in n)if(n.hasOwnProperty(f)){var c=t.getElementById(f);if(c){var h=nt(t,c,n[f]);h&&(e=e.concat(h))}}return e.length?e:null}(t,n.elements);return a?(e=a,r=n.settings,i=r.duration,o=e.length,u=null,function(t,n){var a=r.iterations||1/0,l=(r.alternate&&a%2==0)^r.direction>0?i:0,s=t%i,f=1+(t-s)/i;n*=r.direction,r.alternate&&f%2==0&&(n=-n);var c=!1;if(f>a)s=l,c=!0,-1===r.fill&&(s=r.direction>0?0:i);else if(n<0&&(s=i-s),s===u)return!1;u=s;for(var h=0;h<o;h++)e[h](s);return c}):null}function rt(t,n){for(var e=n.querySelectorAll("svg"),r=0;r<e.length;r++)if(e[r].id===t.root&&!e[r].svgatorAnimation)return e[r].svgatorAnimation=!0,e[r];return null}function it(t){var n=function(t){return t.shadowRoot};return document?Array.from(t.querySelectorAll(":not("+["a","area","audio","br","canvas","circle","datalist","embed","g","head","hr","iframe","img","input","link","object","path","polygon","rect","script","source","style","svg","title","track","video"].join()+")")).filter(n).map(n):[]}function ot(t){var n=arguments.length>1&&void 0!==arguments[1]?arguments[1]:document,e=arguments.length>2&&void 0!==arguments[2]?arguments[2]:0,r=rt(t,n);if(r)return r;if(e>=20)return null;for(var i=it(n),o=0;o<i.length;o++){var u=ot(t,i[o],e+1);if(u)return u}return null}function ut(t,n){if(Y=n,!t||!t.root||!Array.isArray(t.animations))return null;var e=ot(t);if(!e)return null;var r=t.animations.map((function(t){return et(e,t)})).filter((function(t){return!!t}));return r.length?{svg:e,animations:r,animationSettings:t.animationSettings,options:t.options||void 0}:null}function at(t){var n=arguments.length>1&&void 0!==arguments[1]?arguments[1]:null,e=arguments.length>2&&void 0!==arguments[2]?arguments[2]:Number,r=arguments.length>3&&void 0!==arguments[3]?arguments[3]:"undefined"!=typeof BigInt&&BigInt,i="0x"+(t.replace(/[^0-9a-fA-F]+/g,"")||27);return n&&r&&e.isSafeInteger&&!e.isSafeInteger(+i)?e(r(i))%n+n:+i}function lt(t,n,e){return!t||!e||n>t.length?t:t.substring(0,n)+lt(t.substring(n+1),e,e)}function st(t){var n=arguments.length>1&&void 0!==arguments[1]?arguments[1]:27;return!t||t%n?t%n:[0,1].includes(n)?n:st(t/n,n)}function ft(t,n,e){if(t&&t.length){var r=at(e),i=st(r)+5,o=lt(t,st(r,5),i);return o=o.replace(/\x7c$/g,"==").replace(/\x2f$/g,"="),o=function(t,n,e){var r=+("0x"+t.substring(0,4));t=t.substring(4);for(var i=at(n,r)%r+e%27,o=[],u=0;u<t.length;u+=2)if("|"!==t[u]){var a=+("0x"+t[u]+t[u+1])-i;o.push(a)}else{var l=+("0x"+t.substring(u+1,u+1+4))-i;u+=3,o.push(l)}return String.fromCharCode.apply(String,o)}(o=(o=atob(o)).replace(/[\x41-\x5A]/g,""),n,r),o=JSON.parse(o)}}var ct=[{key:"alternate",def:!1},{key:"fill",def:1},{key:"iterations",def:0},{key:"direction",def:1},{key:"speed",def:1},{key:"fps",def:100}],ht=function(){function t(n,e){var i=this,o=arguments.length>2&&void 0!==arguments[2]?arguments[2]:null;r(this,t),this._id=0,this._running=!1,this._rollingBack=!1,this._animations=n,this._settings=e,(!o||o<"2022-05-02")&&delete this._settings.speed,ct.forEach((function(t){i._settings[t.key]=i._settings[t.key]||t.def})),this.duration=e.duration,this.offset=e.offset||0,this.rollbackStartOffset=0}return o(t,[{key:"alternate",get:function(){return this._settings.alternate}},{key:"fill",get:function(){return this._settings.fill}},{key:"iterations",get:function(){return this._settings.iterations}},{key:"direction",get:function(){return this._settings.direction}},{key:"speed",get:function(){return this._settings.speed}},{key:"fps",get:function(){return this._settings.fps}},{key:"maxFiniteDuration",get:function(){return this.iterations>0?this.iterations*this.duration:this.duration}},{key:"_apply",value:function(t){for(var n=arguments.length>1&&void 0!==arguments[1]?arguments[1]:{},e=this._animations,r=e.length,i=0,o=0;o<r;o++)n[o]?i++:(n[o]=e[o](t,1),n[o]&&i++);return i}},{key:"_rollback",value:function(t){var n=this,e=1/0,r=null;this.rollbackStartOffset=t,this._rollingBack=!0,this._running=!0;this._id=window.requestAnimationFrame((function i(o){if(n._rollingBack){null==r&&(r=o);var u=Math.round(t-(o-r)*n.speed);if(u>n.duration&&e!==1/0){var a=!!n.alternate&&u/n.duration%2>1,l=u%n.duration;u=(l+=a?n.duration:0)||n.duration}var s=(n.fps?1e3/n.fps:0)*n.speed,f=Math.max(0,u);f<=e-s&&(n.offset=f,e=f,n._apply(f));var c=n.iterations>0&&-1===n.fill&&u>=n.maxFiniteDuration;(u<=0||n.offset<u||c)&&n.stop(),n._id=window.requestAnimationFrame(i)}}))}},{key:"_start",value:function(){var t=this,n=arguments.length>0&&void 0!==arguments[0]?arguments[0]:0,e=-1/0,r=null,i={};this._running=!0;var o=function o(u){null==r&&(r=u);var a=Math.round((u-r)*t.speed+n),l=(t.fps?1e3/t.fps:0)*t.speed;if(a>=e+l&&!t._rollingBack&&(t.offset=a,e=a,t._apply(a,i)===t._animations.length))return void t.pause(!0);t._id=window.requestAnimationFrame(o)};this._id=window.requestAnimationFrame(o)}},{key:"_pause",value:function(){this._id&&window.cancelAnimationFrame(this._id),this._running=!1}},{key:"play",value:function(){if(!this._running)return this._rollingBack?this._rollback(this.offset):this._start(this.offset)}},{key:"stop",value:function(){this._pause(),this.offset=0,this.rollbackStartOffset=0,this._rollingBack=!1,this._apply(0)}},{key:"reachedToEnd",value:function(){return this.iterations>0&&this.offset>=this.iterations*this.duration}},{key:"restart",value:function(){var t=arguments.length>0&&void 0!==arguments[0]&&arguments[0];this.stop(t),this.play(t)}},{key:"pause",value:function(){this._pause()}},{key:"reverse",value:function(){this.direction=-this.direction}}],[{key:"build",value:function(t,n){delete t.animationSettings,t.options=ft(t.options,t.root,"5c7f360c"),t.animations.map((function(n){n.settings=ft(n.s,t.root,"5c7f360c"),delete n.s,t.animationSettings||(t.animationSettings=n.settings)}));var e=t.version;if(!(t=ut(t,n)))return null;var r=t.options||{},i=new this(t.animations,t.animationSettings,e);return{el:t.svg,options:r,player:i}}},{key:"push",value:function(t){return this.build(t)}},{key:"init",value:function(){var t=this,n=window.__SVGATOR_PLAYER__&&window.__SVGATOR_PLAYER__["5c7f360c"];Array.isArray(n)&&n.splice(0).forEach((function(n){return t.build(n)}))}}]),t}();function vt(t){return d(t)+""}function yt(t){var n=arguments.length>1&&void 0!==arguments[1]?arguments[1]:" ";return t&&t.length?t.map(vt).join(n):""}function gt(t){if(!t)return"transparent";if(null==t.a||t.a>=1){var n=function(t){return 1===(t=parseInt(t).toString(16)).length?"0"+t:t},e=function(t){return t.charAt(0)===t.charAt(1)},r=n(t.r),i=n(t.g),o=n(t.b);return e(r)&&e(i)&&e(o)&&(r=r.charAt(0),i=i.charAt(0),o=o.charAt(0)),"#"+r+i+o}return"rgba("+t.r+","+t.g+","+t.b+","+t.a+")"}function dt(t){return t?"url(#"+t+")":"none"}!function(){for(var t=0,n=["ms","moz","webkit","o"],e=0;e<n.length&&!window.requestAnimationFrame;++e)window.requestAnimationFrame=window[n[e]+"RequestAnimationFrame"],window.cancelAnimationFrame=window[n[e]+"CancelAnimationFrame"]||window[n[e]+"CancelRequestAnimationFrame"];window.requestAnimationFrame||(window.requestAnimationFrame=function(n){var e=Date.now(),r=Math.max(0,16-(e-t)),i=window.setTimeout((function(){n(e+r)}),r);return t=e+r,i},window.cancelAnimationFrame=window.clearTimeout)}();var pt={f:null,i:function(t,n,e){return 0===t?n:1===t?e:{x:B(t,n.x,e.x),y:B(t,n.y,e.y)}},u:function(t,n){return function(e){var r=n(e);t.setAttribute("rx",vt(r.x)),t.setAttribute("ry",vt(r.y))}}},mt={f:null,i:function(t,n,e){return 0===t?n:1===t?e:{width:B(t,n.width,e.width),height:B(t,n.height,e.height)}},u:function(t,n){return function(e){var r=n(e);t.setAttribute("width",vt(r.width)),t.setAttribute("height",vt(r.height))}}};Object.freeze({M:2,L:2,Z:0,H:1,V:1,C:6,Q:4,T:2,S:4,A:7});var bt={},wt=null;function At(t){var n=function(){if(wt)return wt;if("object"!==("undefined"==typeof document?"undefined":e(document))||!document.createElementNS)return{};var t=document.createElementNS("http://www.w3.org/2000/svg","svg");return t&&t.style?(t.style.position="absolute",t.style.opacity="0.01",t.style.zIndex="-9999",t.style.left="-9999px",t.style.width="1px",t.style.height="1px",wt={svg:t}):{}}().svg;if(!n)return function(t){return null};var r=document.createElementNS(n.namespaceURI,"path");r.setAttributeNS(null,"d",t),r.setAttributeNS(null,"fill","none"),r.setAttributeNS(null,"stroke","none"),n.appendChild(r);var i=r.getTotalLength();return function(t){var n=r.getPointAtLength(i*t);return{x:n.x,y:n.y}}}function _t(t){return bt[t]?bt[t]:bt[t]=At(t)}function xt(t,n,e,r){if(!t||!r)return!1;var i=["M",t.x,t.y];if(n&&e&&(i.push("C"),i.push(n.x),i.push(n.y),i.push(e.x),i.push(e.y)),n?!e:e){var o=n||e;i.push("Q"),i.push(o.x),i.push(o.y)}return n||e||i.push("L"),i.push(r.x),i.push(r.y),i.join(" ")}function kt(t,n,e,r){var i=arguments.length>4&&void 0!==arguments[4]?arguments[4]:1,o=xt(t,n,e,r),u=_t(o);try{return u(i)}catch(t){return null}}function St(t,n,e){return t+(n-t)*e}function Ot(t,n,e){var r=arguments.length>3&&void 0!==arguments[3]&&arguments[3],i={x:St(t.x,n.x,e),y:St(t.y,n.y,e)};return r&&(i.a=jt(t,n)),i}function jt(t,n){return Math.atan2(n.y-t.y,n.x-t.x)}function Et(t,n,e,r){var i=1-r;return i*i*t+2*i*r*n+r*r*e}function Mt(t,n,e,r){return 2*(1-r)*(n-t)+2*r*(e-n)}function Pt(t,n,e,r){var i=arguments.length>4&&void 0!==arguments[4]&&arguments[4],o=kt(t,n,null,e,r);return o||(o={x:Et(t.x,n.x,e.x,r),y:Et(t.y,n.y,e.y,r)}),i&&(o.a=It(t,n,e,r)),o}function It(t,n,e,r){return Math.atan2(Mt(t.y,n.y,e.y,r),Mt(t.x,n.x,e.x,r))}function Rt(t,n,e,r,i){var o=i*i;return i*o*(r-t+3*(n-e))+3*o*(t+e-2*n)+3*i*(n-t)+t}function Ft(t,n,e,r,i){var o=1-i;return 3*(o*o*(n-t)+2*o*i*(e-n)+i*i*(r-e))}function Nt(t,n,e,r,i){var o=arguments.length>5&&void 0!==arguments[5]&&arguments[5],u=kt(t,n,e,r,i);return u||(u={x:Rt(t.x,n.x,e.x,r.x,i),y:Rt(t.y,n.y,e.y,r.y,i)}),o&&(u.a=Tt(t,n,e,r,i)),u}function Tt(t,n,e,r,i){return Math.atan2(Ft(t.y,n.y,e.y,r.y,i),Ft(t.x,n.x,e.x,r.x,i))}function qt(t,n,e){var r=arguments.length>3&&void 0!==arguments[3]&&arguments[3];if(Dt(n)){if(Lt(e))return Pt(n,e.start,e,t,r)}else if(Dt(e)){if(Ct(n))return Pt(n,n.end,e,t,r)}else{if(Ct(n))return Lt(e)?Nt(n,n.end,e.start,e,t,r):Pt(n,n.end,e,t,r);if(Lt(e))return Pt(n,e.start,e,t,r)}return Ot(n,e,t,r)}function Bt(t,n,e){var r=qt(t,n,e,!0);return r.a=function(t){return arguments.length>1&&void 0!==arguments[1]&&arguments[1]?t+Math.PI:t}(r.a)/m,r}function Dt(t){return!t.type||"corner"===t.type}function Lt(t){return null!=t.start&&!Dt(t)}function Ct(t){return null!=t.end&&!Dt(t)}var Vt=new N;var Gt={f:vt,i:q},zt={f:vt,i:D};function Yt(t,n,e){return t.map((function(t){return function(t,n,e){var r=t.v;if(!r||"g"!==r.t||r.s||!r.v||!r.r)return t;var i=e.getElementById(r.r),o=i&&i.querySelectorAll("stop")||[];return r.s=r.v.map((function(t,n){var e=o[n]&&o[n].getAttribute("offset");return{c:t,o:e=d(parseInt(e)/100)}})),delete r.v,t}(t,0,e)}))}var $t={gt:"gradientTransform",c:{x:"cx",y:"cy"},rd:"r",f:{x:"x1",y:"y1"},to:{x:"x2",y:"y2"}};function Ut(t,n,r,i,o,u,a,l){return Yt(t,0,l),n=function(t,n,e){for(var r,i,o,u=t.length-1,a={},l=0;l<=u;l++)(r=t[l]).e&&(r.e=n(r.e)),r.v&&"g"===(i=r.v).t&&i.r&&(o=e.getElementById(i.r))&&(a[i.r]={e:o,s:o.querySelectorAll("stop")});return a}(t,i,l),function(i){var o=r(i,t,Qt);if(!o)return"none";if("c"===o.t)return gt(o.v);if("g"===o.t){if(!n[o.r])return dt(o.r);var u=n[o.r];return function(t,n){for(var e=t.s,r=e.length;r<n.length;r++){var i=e[e.length-1].cloneNode();i.id=Zt(i.id),t.e.appendChild(i),e=t.s=t.e.querySelectorAll("stop")}for(var o=0,u=e.length,a=n.length-1;o<u;o++)e[o].setAttribute("stop-color",gt(n[Math.min(o,a)].c)),e[o].setAttribute("offset",n[Math.min(o,a)].o)}(u,o.s),Object.keys($t).forEach((function(t){if(void 0!==o[t])if("object"!==e($t[t])){var n,r="gt"===t?(n=o[t],Array.isArray(n)?"matrix("+n.join(" ")+")":""):o[t],i=$t[t];u.e.setAttribute(i,r)}else Object.keys($t[t]).forEach((function(n){if(void 0!==o[t][n]){var e=o[t][n],r=$t[t][n];u.e.setAttribute(r,e)}}))})),dt(o.r)}return"none"}}function Qt(t,e,r){if(0===t)return e;if(1===t)return r;if(e&&r){var i=e.t;if(i===r.t)switch(e.t){case"c":return{t:i,v:V(t,e.v,r.v)};case"g":if(e.r===r.r){var o={t:i,s:Ht(t,e.s,r.s),r:e.r};return e.gt&&r.gt&&(o.gt=function(t,n,e){var r=n.length;if(r!==e.length)return T(t,n,e);for(var i=new Array(r),o=0;o<r;o++)i[o]=q(t,n[o],e[o]);return i}(t,e.gt,r.gt)),e.c?(o.c=L(t,e.c,r.c),o.rd=B(t,e.rd,r.rd)):e.f&&(o.f=L(t,e.f,r.f),o.to=L(t,e.to,r.to)),o}}if("c"===e.t&&"g"===r.t||"c"===r.t&&"g"===e.t){var u="c"===e.t?e:r,a="g"===e.t?n({},e):n({},r),l=a.s.map((function(t){return{c:u.v,o:t.o}}));return a.s="c"===e.t?Ht(t,l,a.s):Ht(t,a.s,l),a}}return T(t,e,r)}function Ht(t,n,e){if(n.length===e.length)return n.map((function(n,r){return Jt(t,n,e[r])}));for(var r=Math.max(n.length,e.length),i=[],o=0;o<r;o++){var u=Jt(t,n[Math.min(o,n.length-1)],e[Math.min(o,e.length-1)]);i.push(u)}return i}function Jt(t,n,e){return{o:D(t,n.o,e.o||0),c:V(t,n.c,e.c||{})}}function Zt(t){return t.replace(/-fill-([0-9]+)$/,(function(t,n){return"-fill-"+(+n+1)}))}var Kt={fill:Ut,"fill-opacity":zt,stroke:Ut,"stroke-opacity":zt,"stroke-width":Gt,"stroke-dashoffset":{f:vt,i:q},"stroke-dasharray":{f:function(t){var n=arguments.length>1&&void 0!==arguments[1]?arguments[1]:" ";return t&&t.length>0&&(t=t.map((function(t){return d(t,4)}))),yt(t,n)},i:function(t,n,e){var r,i,o,u=n.length,a=e.length;if(u!==a)if(0===u)n=G(u=a,0);else if(0===a)a=u,e=G(u,0);else{var l=(o=(r=u)*(i=a)/function(t,n){for(var e;n;)e=n,n=t%n,t=e;return t||1}(r,i))<0?-o:o;n=z(n,Math.floor(l/u)),e=z(e,Math.floor(l/a)),u=a=l}for(var s=[],f=0;f<u;f++)s.push(d(B(t,n[f],e[f])));return s}},opacity:zt,transform:function(t,n,r,i){if(!(t=function(t,n){if(!t||"object"!==e(t))return null;var r=!1;for(var i in t)t.hasOwnProperty(i)&&(t[i]&&t[i].length?(t[i].forEach((function(t){t.e&&(t.e=n(t.e))})),r=!0):delete t[i]);return r?t:null}(t,i)))return null;var o=function(e,i,o){var u=arguments.length>3&&void 0!==arguments[3]?arguments[3]:null;return t[e]?r(i,t[e],o):n&&n[e]?n[e]:u};return n&&n.a&&t.o?function(n){var e=r(n,t.o,Bt);return Vt.recomposeSelf(e,o("r",n,q,0)+e.a,o("k",n,L),o("s",n,L),o("t",n,L)).toString()}:function(t){return Vt.recomposeSelf(o("o",t,qt,null),o("r",t,q,0),o("k",t,L),o("s",t,L),o("t",t,L)).toString()}},r:Gt,"#size":mt,"#radius":pt,_:function(t,n){if(Array.isArray(t))for(var e=0;e<t.length;e++)this[t[e]]=n;else this[t]=n}},Wt=function(t){!function(t,n){if("function"!=typeof n&&null!==n)throw new TypeError("Super expression must either be null or a function");t.prototype=Object.create(n&&n.prototype,{constructor:{value:t,writable:!0,configurable:!0}}),n&&l(t,n)}(u,t);var n,e,i=(n=u,e=s(),function(){var t,r=a(n);if(e){var i=a(this).constructor;t=Reflect.construct(r,arguments,i)}else t=r.apply(this,arguments);return c(this,t)});function u(){return r(this,u),i.apply(this,arguments)}return o(u,null,[{key:"build",value:function(t){var n=h(a(u),"build",this).call(this,t,Kt);if(!n)return null;n.el,n.options,function(t,n,e){t.play()}(n.player)}}]),u}(ht);return Wt.init(),Wt}));
(function(s,i,o,w,d,a,b){w[o]=w[o]||{};w[o][s]=w[o][s]||[];w[o][s].push(i);})('5c7f360c',{"root":"ewK40PD75Ya1","version":"2022-05-04","animations":[{"elements":{"ewK40PD75Ya4":{"opacity":[{"t":0,"v":0},{"t":500,"v":1}]},"ewK40PD75Ya5":{"opacity":[{"t":500,"v":0},{"t":1000,"v":1}]},"ewK40PD75Ya6":{"opacity":[{"t":1000,"v":0},{"t":1500,"v":1}]},"ewK40PD75Ya7":{"opacity":[{"t":0,"v":0},{"t":500,"v":1}]},"ewK40PD75Ya8":{"opacity":[{"t":500,"v":0},{"t":1000,"v":1}]},"ewK40PD75Ya9":{"opacity":[{"t":1000,"v":0},{"t":1500,"v":1}]},"ewK40PD75Ya11":{"transform":{"data":{"r":1.020423,"s":{"x":1.043295,"y":0.85465},"t":{"x":1.700855,"y":2.96796}},"keys":{"o":[{"t":0,"v":{"x":-13.79088,"y":4.104195,"type":"corner"}},{"t":1900,"v":{"x":-0.098158,"y":2.213523,"type":"corner"},"e":[0.42,0,0.58,1]},{"t":3000,"v":{"x":-14.252159,"y":4.50178,"type":"corner"}}]}}},"ewK40PD75Ya12":{"transform":{"data":{"t":{"x":-19.089999,"y":-3.708999}},"keys":{"o":[{"t":0,"v":{"x":2.236,"y":6.66624,"type":"corner"},"e":[0.42,0,0.58,1]},{"t":1900,"v":{"x":19.09,"y":3.709,"type":"corner"},"e":[0.42,0,0.58,1]},{"t":3000,"v":{"x":2.236,"y":6.616216,"type":"corner"}}]}}}},"s":"MIDA1ZGUxQTg4Y2FkYmBQ4YzdkYWNmZDVkNDgU4TGEwOTk5ODk2OTZJLOTJZODhjYWNmZDhjYSmM5ZGFjZmQ1ZDQ4OGAEwOTc5Mjg4Y2ZkYWNWiZDhjN2RhY2ZkNWQ0RZDk4OGEwOTY5Mkk4OLGNjY2ZkMmQyODhhMDKk3OTI4OGM3ZDJkYWNFiZDhkNE1jN2RhY2I4BOGEwY2NjN2QyZDljYVjkyODhkOWQ2Y2JjYmMNhWTg4YTA5N0Y5MjgJ4Y2NkNmQ5ODhhMDk3TOTY5NmUzUA|"}],"options":"MBDAxMDg4MmY4MDgxNmXU3ZjgxMmZTNDcyZjcC5N2M2ZTcxMmY4YQ|"},'__SVGATOR_PLAYER__',window,document)
]]></script>
</svg>
