<svg id="_20x20" data-name="20x20" xmlns="http://www.w3.org/2000/svg" xmlns:xlink="http://www.w3.org/1999/xlink" width="20" height="20" viewBox="0 0 20 20">
  <defs>
    <clipPath id="clip-path">
      <rect id="Rectangle_4612" data-name="Rectangle 4612" width="20" height="20" fill="none"/>
    </clipPath>
  </defs>
  <g id="Mask_Group_307" data-name="Mask Group 307" clip-path="url(#clip-path)">
    <path id="categories" d="M9.615,2.308H4.231A1.925,1.925,0,0,0,2.308,4.231V9.615a1.925,1.925,0,0,0,1.923,1.923H9.615a1.925,1.925,0,0,0,1.923-1.923V4.231A1.925,1.925,0,0,0,9.615,2.308Zm1.154,7.308a1.154,1.154,0,0,1-1.154,1.154H4.231A1.154,1.154,0,0,1,3.077,9.615V4.231A1.154,1.154,0,0,1,4.231,3.077H9.615a1.154,1.154,0,0,1,1.154,1.154Zm9.615-7.308H15a1.925,1.925,0,0,0-1.923,1.923V9.615A1.925,1.925,0,0,0,15,11.538h5.385a1.925,1.925,0,0,0,1.923-1.923V4.231A1.925,1.925,0,0,0,20.385,2.308Zm1.154,7.308a1.154,1.154,0,0,1-1.154,1.154H15a1.154,1.154,0,0,1-1.154-1.154V4.231A1.154,1.154,0,0,1,15,3.077h5.385a1.154,1.154,0,0,1,1.154,1.154ZM9.615,13.077H4.231A1.925,1.925,0,0,0,2.308,15v5.385a1.925,1.925,0,0,0,1.923,1.923H9.615a1.925,1.925,0,0,0,1.923-1.923V15a1.925,1.925,0,0,0-1.923-1.923Zm1.154,7.308a1.154,1.154,0,0,1-1.154,1.154H4.231a1.154,1.154,0,0,1-1.154-1.154V15a1.154,1.154,0,0,1,1.154-1.154H9.615A1.154,1.154,0,0,1,10.769,15Zm6.923-7.308a4.615,4.615,0,1,0,4.615,4.615A4.615,4.615,0,0,0,17.692,13.077Zm0,8.462a3.846,3.846,0,1,1,3.846-3.846,3.846,3.846,0,0,1-3.846,3.846Z" transform="translate(-2.308 -2.308)" fill="#3c3c3c"/>
  </g>
</svg>
