<svg id="_15x15_photo_back" data-name="15x15 photo back" xmlns="http://www.w3.org/2000/svg" xmlns:xlink="http://www.w3.org/1999/xlink" width="15" height="15" viewBox="0 0 15 15">
  <defs>
    <clipPath id="clip-path">
      <rect id="Rectangle_4561" data-name="Rectangle 4561" width="15" height="15" fill="none"/>
    </clipPath>
  </defs>
  <g id="Mask_Group_313" data-name="Mask Group 313" clip-path="url(#clip-path)">
    <path id="sale" d="M12.318,14.155l-3.53.636a1.683,1.683,0,0,0,.287-.587L10.9,7.4a1.681,1.681,0,0,0-.17-1.3L9.105,3.27l.77.536A.236.236,0,0,1,9.9,3.743a2.284,2.284,0,0,0,.113-.239,2.319,2.319,0,0,0,.084-.253A2.205,2.205,0,0,0,6.876.764L6.865.771A2.2,2.2,0,0,0,5.93,3.524c.01.023.02.046.03.069l-.412.239c-.02-.042-.04-.085-.057-.128A2.679,2.679,0,0,1,6.627.36L6.642.352a2.68,2.68,0,0,1,3.914,3.022,2.743,2.743,0,0,1-.1.306,2.692,2.692,0,0,1-.138.292.233.233,0,0,1-.08.086l1.323.922a1.2,1.2,0,0,1,.512.8l1.25,6.936A1.244,1.244,0,0,1,12.318,14.155ZM5.959,3.593l1.01-.585a1.239,1.239,0,0,1,1.7.455l1.651,2.87a1.2,1.2,0,0,1,.123.939L8.616,14.081a1.243,1.243,0,0,1-1.52.877L2.581,13.749a1.243,1.243,0,0,1-.877-1.52L3.528,5.421A1.2,1.2,0,0,1,4.1,4.668l1.444-.836A2.678,2.678,0,0,0,6.471,4.9a.875.875,0,0,0,.1.557l.009.016a.873.873,0,0,0,1.178.328L7.771,5.8A.872.872,0,0,0,8.1,4.619.136.136,0,0,0,8.091,4.6a.874.874,0,0,0-1.178-.328L6.9,4.283a.87.87,0,0,0-.224.184,2.2,2.2,0,0,1-.714-.874ZM4.869,8.887h0a.688.688,0,0,0,.942.252h0A.689.689,0,0,0,6.063,8.2h0a.689.689,0,0,0-1.194.69Zm2.179,2.578a.688.688,0,0,0-.925-.261l-.017.008a.69.69,0,0,0,.166,1.263h0a.686.686,0,0,0,.507-.061l.017-.008a.688.688,0,0,0,.252-.942Zm.628-3.012a.239.239,0,0,0-.337,0L4.247,11.544a.238.238,0,0,0,.336.337L7.675,8.789A.238.238,0,0,0,7.675,8.453Zm-2.4.2a.217.217,0,0,0,.293.078h0a.213.213,0,0,0,.1-.13.209.209,0,0,0-.021-.162h0a.217.217,0,0,0-.293-.078h0a.213.213,0,0,0-.1.13.217.217,0,0,0,.021.162ZM6.989,5.239a.393.393,0,0,0,.242.186.4.4,0,0,0,.293-.034l.01-.006a.4.4,0,0,0,.152-.535L7.68,4.841a.4.4,0,0,0-.243-.186.4.4,0,0,0-.293.033l-.009.006a.4.4,0,0,0-.186.243.4.4,0,0,0,.034.293ZM6.636,11.7a.218.218,0,0,0-.285-.083l-.008,0a.214.214,0,0,0,.051.393A.217.217,0,0,0,6.548,12l.008,0a.216.216,0,0,0,.079-.293h0Z" transform="translate(0 0)"/>
  </g>
</svg>
