<svg id="_15x15_photo_back" data-name="15x15 photo back" xmlns="http://www.w3.org/2000/svg" xmlns:xlink="http://www.w3.org/1999/xlink" width="15" height="15" viewBox="0 0 15 15">
  <defs>
    <clipPath id="clip-path">
      <rect id="Rectangle_4561" data-name="Rectangle 4561" width="15" height="15" fill="none"/>
    </clipPath>
  </defs>
  <g id="Mask_Group_314" data-name="Mask Group 314" clip-path="url(#clip-path)">
    <g id="_14-Gift" data-name="14-Gift" transform="translate(-0.242 -0.242)">
      <path id="Path_21434" data-name="Path 21434" d="M9.677,6.048h4.355v8.226a.968.968,0,0,1-.968.968H9.435V6.048Z" fill="#ffad39"/>
      <path id="Path_21435" data-name="Path 21435" d="M6.048,6.048v9.194H2.419a.968.968,0,0,1-.968-.968V6.048Z" fill="#ffad39"/>
      <path id="Path_21436" data-name="Path 21436" d="M5.806,3.145v2.9H.726a.485.485,0,0,1-.484-.484V3.629a.485.485,0,0,1,.484-.484Z" fill="#febd55"/>
      <path id="Path_21437" data-name="Path 21437" d="M15.242,3.629V5.565a.485.485,0,0,1-.484.484H9.677v-2.9h5.081A.485.485,0,0,1,15.242,3.629Z" fill="#febd55"/>
      <path id="Path_21438" data-name="Path 21438" d="M8.952,2.661v.484H6.532V2.661a.485.485,0,0,1,.484-.484H8.468a.485.485,0,0,1,.484.484Z" fill="#cb3541"/>
      <path id="Path_21439" data-name="Path 21439" d="M8.468,2.661H7.016A.484.484,0,0,1,6.6,2.419a.478.478,0,0,0-.067.242v.484H8.952V2.661a.478.478,0,0,0-.068-.242A.484.484,0,0,1,8.468,2.661Z" fill="#a81e29"/>
      <path id="Path_21440" data-name="Path 21440" d="M6.532,2.661v.484H2.9a.711.711,0,0,1-.726-.726c0-.968,1.21-.968,1.21-.968a4.746,4.746,0,0,1,3.145,1.21Z" fill="#e03e3e"/>
      <path id="Path_21441" data-name="Path 21441" d="M4.6.242c1.935,0,1.935,2.419,1.935,2.419a4.746,4.746,0,0,0-3.145-1.21A1.185,1.185,0,0,1,4.6.242Z" fill="#cb3541"/>
      <path id="Path_21442" data-name="Path 21442" d="M8.952,2.661s0-2.419,1.935-2.419a1.185,1.185,0,0,1,1.21,1.21A4.746,4.746,0,0,0,8.952,2.661Z" fill="#cb3541"/>
      <path id="Path_21443" data-name="Path 21443" d="M8.952,2.661A4.746,4.746,0,0,1,12.1,1.452s1.21,0,1.21.968a.711.711,0,0,1-.726.726H8.952Z" fill="#e03e3e"/>
      <path id="Path_21444" data-name="Path 21444" d="M6.048,6.048H9.435v9.194H6.048Z" fill="#cb3541"/>
      <path id="Path_21445" data-name="Path 21445" d="M9.677,3.145v2.9H5.806v-2.9H9.677Z" fill="#ff6161"/>
      <path id="Path_21446" data-name="Path 21446" d="M14.669,10.229c.051.23.573.411.573.658s-.523.428-.573.658.339.634.24.847-.651.15-.8.339.041.719-.143.869-.648-.155-.861-.048-.266.665-.5.719-.515-.426-.755-.426-.53.479-.755.426-.288-.615-.5-.719-.677.2-.859.048,0-.682-.145-.869-.692-.121-.8-.339.293-.61.24-.847-.573-.411-.573-.658.523-.428.573-.658S8.7,9.6,8.8,9.382s.651-.15.8-.339-.041-.719.143-.869.648.155.861.048.266-.665.5-.719.515.426.755.426.53-.479.755-.426.288.615.5.719.677-.2.859-.048,0,.682.145.869.692.121.8.339S14.615,9.992,14.669,10.229Z" fill="#cb3541"/>
      <path id="Path_21447" data-name="Path 21447" d="M14.516,10.887c0,.194-.411.337-.451.517s.266.5.188.666-.511.118-.626.264.031.566-.113.683-.508-.121-.676-.038-.21.523-.391.565-.4-.336-.592-.336-.416.377-.592.336-.227-.484-.391-.565-.532.156-.676.038,0-.536-.113-.683-.545-.093-.626-.265.229-.48.188-.666-.451-.323-.451-.517.411-.337.451-.517-.266-.5-.188-.666.511-.118.626-.264-.031-.566.113-.683.508.121.676.038.21-.523.391-.565.4.336.592.336.416-.377.592-.336.227.484.391.565.532-.156.676-.038,0,.536.113.683.545.094.626.265-.229.48-.188.666S14.516,10.694,14.516,10.887Z" fill="#ff6161"/>
      <path id="Path_21448" data-name="Path 21448" d="M12.581,12.823a.726.726,0,1,1,.726-.726.726.726,0,0,1-.726.726Zm0-.968a.242.242,0,1,0,.242.242A.242.242,0,0,0,12.581,11.855Z" fill="#fbfbfb"/>
      <path id="Path_21449" data-name="Path 21449" d="M11.129,10.4a.726.726,0,1,1,.726-.726A.726.726,0,0,1,11.129,10.4Zm0-.968a.242.242,0,1,0,.242.242A.242.242,0,0,0,11.129,9.435Z" fill="#fbfbfb"/>
      <path id="Path_21450" data-name="Path 21450" d="M10.645,12.339a.242.242,0,0,1-.171-.413l2.419-2.419a.242.242,0,1,1,.342.342l-2.419,2.419A.242.242,0,0,1,10.645,12.339Z" fill="#fbfbfb"/>
      <path id="Path_21451" data-name="Path 21451" d="M14.032,7.016V6.048h-4.6v.968Z" fill="#e68c15"/>
      <path id="Path_21452" data-name="Path 21452" d="M13.065,14.274H9.435v.968h3.629a.968.968,0,0,0,.968-.968v-.968A.968.968,0,0,1,13.065,14.274Z" fill="#e68c15"/>
      <path id="Path_21453" data-name="Path 21453" d="M2.661,9.919V7.984a.968.968,0,0,1,.968-.968H6.048V6.048h-4.6v8.226a.968.968,0,0,0,.968.968H6.048V14.163A4.355,4.355,0,0,1,2.661,9.919Z" fill="#e68c15"/>
      <path id="Path_21454" data-name="Path 21454" d="M7.016,14.274a4.367,4.367,0,0,1-.968-.112v1.079H9.435v-.968Z" fill="#a81e29"/>
      <path id="Path_21455" data-name="Path 21455" d="M6.048,6.048H9.435v.968H6.048Z" fill="#a81e29"/>
      <path id="Path_21456" data-name="Path 21456" d="M2.782,4.839a.847.847,0,1,1,0-1.694H.726a.485.485,0,0,0-.484.484V5.565a.485.485,0,0,0,.484.484H5.806V4.839Z" fill="#ffa930"/>
      <path id="Path_21457" data-name="Path 21457" d="M14.758,4.839H9.677v1.21h5.081a.485.485,0,0,0,.484-.484V4.355A.484.484,0,0,1,14.758,4.839Z" fill="#ffa930"/>
      <path id="Path_21458" data-name="Path 21458" d="M5.806,4.839v1.21H9.677V4.839Z" fill="#cb3541"/>
      <path id="Path_21459" data-name="Path 21459" d="M5.565,1.452A4.891,4.891,0,0,0,3.418,1.2a1.438,1.438,0,0,0-.031.25,4.746,4.746,0,0,1,3.145,1.21A3.261,3.261,0,0,0,5.964.877C5.964,1.183,5.877,1.452,5.565,1.452Z" fill="#a81e29"/>
      <path id="Path_21460" data-name="Path 21460" d="M10.161,1.452c-.4,0-.432-.444-.38-.842a2.964,2.964,0,0,0-.83,2.051A4.746,4.746,0,0,1,12.1,1.452a1.46,1.46,0,0,0-.042-.3A5.781,5.781,0,0,0,10.161,1.452Z" fill="#a81e29"/>
      <path id="Path_21461" data-name="Path 21461" d="M5.535,2.124a.244.244,0,0,1-.237.295H2.9a.484.484,0,0,1-.484-.484v-.13a.829.829,0,0,0-.242.614.711.711,0,0,0,.726.726H6.532V2.661a4.328,4.328,0,0,0-1.047-.71,1.159,1.159,0,0,1,.05.173Z" fill="#cb3541"/>
      <path id="Path_21462" data-name="Path 21462" d="M12.823,2.419h-2.4a.244.244,0,0,1-.237-.295,1.134,1.134,0,0,1,.114-.31,4.531,4.531,0,0,0-1.352.847v.484h3.629a.711.711,0,0,0,.726-.726.948.948,0,0,0-.043-.286A.484.484,0,0,1,12.823,2.419Z" fill="#cb3541"/>
      <path id="Path_21463" data-name="Path 21463" d="M12.1,7.815V3.145h-.484V7.815a.31.31,0,0,0,.484,0Z" fill="#a81e29"/>
      <path id="Path_21464" data-name="Path 21464" d="M8.8,12.392c-.1-.213.293-.61.24-.847s-.573-.411-.573-.658.523-.428.573-.658c.039-.175-.163-.435-.232-.648-.2.121-.641.092-.733.285-.1.213.293.61.24.847s-.573.411-.573.658.523.428.573.658-.339.634-.24.847.651.15.8.339-.039.719.145.869c.091.075.253.036.419-.008V12.632c-.22-.074-.555-.075-.634-.24Z" fill="#961b25"/>
      <g id="Group_10880" data-name="Group 10880">
        <path id="Path_21465" data-name="Path 21465" d="M11.1,14.269c-.23-.053-.288-.615-.5-.719s-.677.2-.859.048,0-.682-.145-.869a.334.334,0,0,0-.162-.1v1.443a.721.721,0,0,1,.44-.04.49.49,0,0,1,.18.24c.093.2.169.445.319.479.225.053.515-.426.755-.426s.53.479.755.426c.149-.034.226-.281.318-.479a.9.9,0,0,1,.088-.154c-.147-.124-.3-.277-.435-.277C11.615,13.844,11.325,14.323,11.1,14.269Z" fill="#e68c15"/>
        <path id="Path_21466" data-name="Path 21466" d="M13.324,13.538a.363.363,0,0,0-.218.012c-.136.068-.208.33-.306.519.173.046.345.092.442.014C13.355,13.99,13.327,13.751,13.324,13.538Z" fill="#e68c15"/>
        <path id="Path_21467" data-name="Path 21467" d="M10.6,8.223a.277.277,0,0,0,.091-.087c-.113-.094-.223-.171-.321-.148-.08.018-.138.1-.19.2A.677.677,0,0,0,10.6,8.223Z" fill="#e68c15"/>
        <path id="Path_21468" data-name="Path 21468" d="M11.1,7.5a.353.353,0,0,1,.271.108V6.048h-.484v1.7C10.944,7.628,11.008,7.526,11.1,7.5Z" fill="#e68c15"/>
      </g>
      <path id="Path_21469" data-name="Path 21469" d="M9.435,8.666c-.165-.044-.327-.082-.419-.007-.127.1-.079.387-.084.614.139-.062.347-.079.5-.131Z" fill="#961b25"/>
    </g>
  </g>
</svg>
