<svg xmlns="http://www.w3.org/2000/svg" width="19" height="20" viewBox="0 0 19 20">
  <g id="Group_10590" data-name="Group 10590" transform="translate(0.473)">
    <circle id="Ellipse_163" data-name="Ellipse 163" cx="1.562" cy="1.562" r="1.562" transform="translate(4.495 9.846)" fill="#c4c2c2"/>
    <path id="Path_14966" data-name="Path 14966" d="M17.179,9.033q.141-1.173.169-2.357c0-4.53-4.966-6.218-8.1-6.218a6.1,6.1,0,0,0-3.99,1.608,4.045,4.045,0,0,0-2.972,1.38,4.58,4.58,0,0,0-1.134,3.23q.028,1.183.169,2.358a2.266,2.266,0,0,0-1.3,2.425,2.164,2.164,0,0,0,1.931,1.89,7.759,7.759,0,0,0,7.294,5.545,7.759,7.759,0,0,0,7.294-5.545,2.164,2.164,0,0,0,1.931-1.891,2.266,2.266,0,0,0-1.3-2.425Zm-1.624,3.58h0a6.6,6.6,0,0,1-6.691,5.04A6.718,6.718,0,0,1,2.785,11.8l.769-2.861a5.033,5.033,0,0,0,2.9-2.271c1.037,1.042,3.361,2.32,8.532,2.388l.739,2.744A7.322,7.322,0,0,1,15.556,12.613Z" transform="translate(0.022 0.324)" fill="#c4c2c2"/>
    <circle id="Ellipse_164" data-name="Ellipse 164" cx="1.562" cy="1.562" r="1.562" transform="translate(10.512 9.846)" fill="#c4c2c2"/>
    <path id="Path_14967" data-name="Path 14967" d="M13.46,15.785a2.991,2.991,0,0,1-4.121,0,.782.782,0,0,0-1.085,1.126,4.578,4.578,0,0,0,6.3,0,.782.782,0,1,0-1.085-1.126Z" transform="translate(-2.371 -1.606)" fill="#c4c2c2"/>
   
  </g>
</svg>
