<svg xmlns="http://www.w3.org/2000/svg" width="67.459" height="67.459" viewBox="0 0 67.459 67.459">
  <g id="Group_3290" data-name="Group 3290" transform="translate(0.25 0.25)">
    <g id="Group_3166" data-name="Group 3166" transform="translate(21.924 23.451)">
      <g id="Group_3165" data-name="Group 3165">
        <path id="Path_15412" data-name="Path 15412" d="M154.384,136.841a2.865,2.865,0,0,0-4.052,0l-12.3,12.3L132.893,144a2.865,2.865,0,1,0-4.052,4.052L136,155.22a2.864,2.864,0,0,0,4.052,0l14.327-14.327A2.865,2.865,0,0,0,154.384,136.841Z" transform="translate(-128.002 -136.002)" fill="#37ef9a" stroke="#404040" stroke-width="0.5"/>
      </g>
    </g>
    <path id="Path_15413" data-name="Path 15413" d="M64.169,30.69a2.791,2.791,0,0,0-2.79,2.79,27.9,27.9,0,1,1-8.1-19.658A2.79,2.79,0,1,0,57.237,9.89a33.48,33.48,0,1,0,9.722,23.589A2.791,2.791,0,0,0,64.169,30.69Z" transform="translate(0 0)" fill="#37ef9a" stroke="#2c2a2a" stroke-width="0.5"/>
  </g>
</svg>
