<svg xmlns="http://www.w3.org/2000/svg" width="123" height="19.998" viewBox="0 0 123 19.998">
  <g id="Group_10871" data-name="Group 10871" transform="translate(-45 -429)">
    <g id="XMLID_10_" transform="translate(45 429)">
      <g id="XMLID_21_" transform="translate(0 0.557)">
        <path id="XMLID_8_" d="M223.2,34.618l1.931,2.922,3.894-5.9V44.706h3.35V25.7h-3.421Z" transform="translate(-210.41 -25.7)" fill="#1a171b"/>
        <path id="XMLID_7_" d="M29.189,25.7H25.8V44.706h3.363V31.639l7.626,11.6,1.944-2.96Z" transform="translate(-25.8 -25.7)" fill="#1a171b"/>
      </g>
      <g id="XMLID_19_" transform="translate(24.386 0.557)">
        <path id="XMLID_6_" d="M431.424,38.811l3.1,5.895h4.037L428.43,25.7h-3.641l-.006.006,5.08,10.076h-6.745l1.756-3.283-1.834-3.574L414.5,44.706h3.777l3.194-5.888Z" transform="translate(-414.5 -25.7)" fill="#1a171b"/>
      </g>
      <g id="XMLID_16_" transform="translate(50.409 0.557)">
        <path id="XMLID_5_" d="M1082.663,25.7H1079.3v9.453l3.363,3.291Z" transform="translate(-1063.03 -25.7)" fill="#1a171b"/>
        <path id="XMLID_4_" d="M831.615,25.7H828.2V44.706h3.363V30.5l13.768,14.206h2.5V42.4Z" transform="translate(-828.2 -25.7)" fill="#1a171b"/>
      </g>
      <g id="XMLID_13_" transform="translate(73.537 0.13)">
        <path id="XMLID_3_" d="M1216.585,24.931a9.618,9.618,0,0,0-6.836-2.657c-4.419,0-8.067,2.644-8.65,6.071h-3.7c.486-5.326,6.071-9.246,12.4-9.246a13.554,13.554,0,0,1,9.414,3.564Z" transform="translate(-1197.4 -19.1)" fill="#1a171b"/>
        <path id="XMLID_2_" d="M1213.366,169.731c-3.687,0-6.829-1.95-8-4.672H1201.6c1.251,4.7,6.155,7.827,11.98,7.827a18.854,18.854,0,0,0,4.2-.441c2.916-.706,6.1-2.553,6.1-5.468V161.8h-10.548l-.006,3.259h7.186v1.477c0,1.633-2.508,2.579-4.037,2.909a13.79,13.79,0,0,1-2.734.285Z" transform="translate(-1201.328 -153.018)" fill="#1a171b"/>
      </g>
      <g id="XMLID_11_" transform="translate(98.865)">
        <path id="XMLID_1_" d="M1625.835,27.174c0-5.673-5.41-10.074-12.052-10.074-6.434,0-12.084,4.2-12.084,9.77,0,5.255,4.438,9.466,10.412,10.131V33.822c-3.913-.614-6.868-3.394-6.868-6.743,0-3.8,3.8-6.876,8.488-6.876s8.488,3.084,8.488,6.876c0,3.324-2.909,6.085-6.777,6.731v3.185c5.747-.665,10.393-4.717,10.393-9.82Z" transform="translate(-1601.7 -17.1)" fill="#1a171b"/>
      </g>
    </g>
  </g>
</svg>
