<svg id="_20x20" data-name="20x20" xmlns="http://www.w3.org/2000/svg" xmlns:xlink="http://www.w3.org/1999/xlink" width="20" height="20" viewBox="0 0 20 20">
  <defs>
    <clipPath id="clip-path">
      <rect id="Rectangle_4612" data-name="Rectangle 4612" width="20" height="20" fill="none"/>
    </clipPath>
  </defs>
  <g id="Mask_Group_308" data-name="Mask Group 308" clip-path="url(#clip-path)">
    <g id="price-tag-2">
      <g id="Group_10828" data-name="Group 10828">
        <path id="Path_21407" data-name="Path 21407" d="M9.612,4.082,6.759,5.472a1.235,1.235,0,0,0-.576.606L2.624,15a1.65,1.65,0,0,0,.838,2.175L7,18.743H9.632Z" fill="#faa515"/>
        <path id="Path_21408" data-name="Path 21408" d="M17.542,16.23v1.719a1.776,1.776,0,0,1-1.758,1.758H8.557a1.742,1.742,0,0,1-1.719-1.758V7.832a1.264,1.264,0,0,1,.278-.821L9.289,4.379a1.288,1.288,0,0,1,.987-.492h3.789a1.288,1.288,0,0,1,.987.492l2.173,2.633a1.3,1.3,0,0,1,.317.821v8.4Z" fill="#fad207"/>
        <g id="Group_10826" data-name="Group 10826">
          <path id="Path_21409" data-name="Path 21409" d="M11.582,10.743h0l-.01-.01-.016-.016-.4-.4-.057.114a1.264,1.264,0,0,0-.428-.074h-.039a1.269,1.269,0,0,0-1.2,1.684l-.119.061.419.419.005.005.006.006h0a1.265,1.265,0,0,0,.889.364h.039a1.269,1.269,0,0,0,.915-2.148ZM10.667,12.3h-.039a.684.684,0,1,1,0-1.367h.039a.684.684,0,0,1,0,1.367Z" fill="#f8c201" fill-rule="evenodd"/>
          <path id="Path_21410" data-name="Path 21410" d="M15.249,10.476l-.391-.391L9.444,15.5l.391.391a.293.293,0,0,0,.414,0l5-5a.293.293,0,0,0,0-.414Z" fill="#f8c201" fill-rule="evenodd"/>
          <path id="Path_21411" data-name="Path 21411" d="M15.326,13.748h0L15,13.421l.021.133a1.261,1.261,0,0,0-.529-.116h-.039a1.269,1.269,0,0,0-1.163,1.778l-.143-.021.389.388.043.043.009.009h0a1.265,1.265,0,0,0,.866.342h.039a1.269,1.269,0,0,0,.831-2.228Zm-.831,1.642h-.039a.684.684,0,1,1,0-1.367h.039a.684.684,0,1,1,0,1.367Z" fill="#f8c201" fill-rule="evenodd"/>
        </g>
        <g id="Group_10827" data-name="Group 10827">
          <path id="Path_21412" data-name="Path 21412" d="M9.651,15.586a.293.293,0,0,1-.207-.5l5-5a.293.293,0,0,1,.414.414l-5,5a.292.292,0,0,1-.207.086Z" fill="#f5f5f5"/>
          <path id="Path_21413" data-name="Path 21413" d="M10.276,12.5h-.039a1.27,1.27,0,1,1,0-2.539h.039a1.27,1.27,0,1,1,0,2.539Zm-.039-1.953a.684.684,0,1,0,0,1.367h.039a.684.684,0,1,0,0-1.367Z" fill="#f5f5f5"/>
          <path id="Path_21414" data-name="Path 21414" d="M14.1,15.586h-.039a1.27,1.27,0,1,1,0-2.539H14.1a1.27,1.27,0,0,1,0,2.539Zm-.039-1.953a.684.684,0,1,0,0,1.367H14.1a.684.684,0,0,0,0-1.367Z" fill="#f5f5f5"/>
        </g>
        <path id="Path_21415" data-name="Path 21415" d="M12.807,6.269a.293.293,0,0,1-.081-.574l.1-.031a2.207,2.207,0,0,0,1.494-2.089V.293a.293.293,0,0,1,.586,0V3.574a2.793,2.793,0,0,1-1.89,2.644c-.041.014-.084.027-.126.04a.292.292,0,0,1-.082.012Z" fill="#e0a446"/>
        <path id="Path_21416" data-name="Path 21416" d="M12.19,6.992a.918.918,0,1,1,.918-.918A.919.919,0,0,1,12.19,6.992Z" fill="#f5f5f5"/>
      </g>
      <g id="Group_10829" data-name="Group 10829">
        <path id="Path_21417" data-name="Path 21417" d="M17.542,15.156a.293.293,0,0,0,.293-.293V7.832a1.6,1.6,0,0,0-.384-1.007L15.278,4.192a1.718,1.718,0,0,0-.387-.347c.009-.09.014-.18.014-.271V.293a.293.293,0,0,0-.586,0s0,3.309,0,3.323a1.451,1.451,0,0,0-.253-.022H10.276a1.5,1.5,0,0,0-.762.212l-.03.013L6.628,5.21a1.531,1.531,0,0,0-.712.75l0,.011L4.73,8.965a.293.293,0,1,0,.545.215L6.454,6.191a.942.942,0,0,1,.434-.456L8.4,5,6.89,6.825a1.558,1.558,0,0,0-.345,1.007V17.949a2.094,2.094,0,0,0,.029.346L3.556,16.957a1.358,1.358,0,0,1-.689-1.789l0-.009L4.78,10.414a.293.293,0,0,0-.544-.219L2.329,14.936a1.945,1.945,0,0,0,.99,2.557l3.54,1.569.013,0A2,2,0,0,0,8.557,20h7.227a2.078,2.078,0,0,0,2.051-2.051V16.23a.293.293,0,1,0-.586,0v1.719a1.484,1.484,0,0,1-1.465,1.465H8.557a1.447,1.447,0,0,1-1.426-1.465V7.832A.967.967,0,0,1,7.342,7.2L9.515,4.565a1,1,0,0,1,.761-.386h3.789a.863.863,0,0,1,.165.016A2.207,2.207,0,0,1,12.979,5.6a.918.918,0,1,0,.122.582,2.792,2.792,0,0,0,1.651-1.7c.026.026.05.053.074.081L17,7.2a1.016,1.016,0,0,1,.25.634v7.031a.293.293,0,0,0,.293.293ZM12.19,6.406a.332.332,0,1,1,.332-.332A.332.332,0,0,1,12.19,6.406Z"/>
        <path id="Path_21418" data-name="Path 21418" d="M9.651,15.586a.292.292,0,0,0,.207-.086l5-5a.293.293,0,0,0-.414-.414l-5,5a.3.3,0,0,0,.207.5Z"/>
        <path id="Path_21419" data-name="Path 21419" d="M10.276,12.5a1.27,1.27,0,1,0,0-2.539h-.039a1.27,1.27,0,1,0,0,2.539Zm-.723-1.27a.684.684,0,0,1,.684-.684h.039a.684.684,0,1,1,0,1.367h-.039A.684.684,0,0,1,9.553,11.23Z"/>
        <path id="Path_21420" data-name="Path 21420" d="M14.065,15.586H14.1a1.27,1.27,0,0,0,0-2.539h-.039a1.27,1.27,0,1,0,0,2.539Zm0-1.953H14.1A.684.684,0,0,1,14.1,15h-.039a.684.684,0,1,1,0-1.367Z"/>
      </g>
    </g>
  </g>
</svg>
