<svg xmlns="http://www.w3.org/2000/svg" width="15" height="15" viewBox="0 0 15 15">
  <g id="Group_10723" data-name="Group 10723" transform="translate(-1109 -49.904)">
    <path id="Subtraction_1" data-name="Subtraction 1" d="M.354,12.537a.358.358,0,0,1-.211-.071.369.369,0,0,1-.129-.393l.9-2.847a6.005,6.005,0,1,1,1.735,1.806L.554,12.476A.332.332,0,0,1,.354,12.537ZM5.977,9.084a.743.743,0,1,0,.761.743A.741.741,0,0,0,5.977,9.084Zm.156-5.92A1.171,1.171,0,0,1,7.423,4.309c0,.562-.248.91-.946,1.331A1.858,1.858,0,0,0,5.372,7.316v.132a.6.6,0,0,0,.6.674c.346,0,.545-.211.577-.611.028-.579.245-.87.967-1.3A2.182,2.182,0,0,0,8.73,4.258,2.271,2.271,0,0,0,6.184,2.1,2.449,2.449,0,0,0,3.806,3.383a1.493,1.493,0,0,0-.156.673.511.511,0,0,0,.56.564c.3,0,.472-.14.582-.484A1.28,1.28,0,0,1,6.132,3.164Z" transform="translate(1109.001 52.366)" fill="#707070"/>
    <path id="Path_21380" data-name="Path 21380" d="M13.343,12.546a.359.359,0,0,1-.213.071.33.33,0,0,1-.2-.062l-2.1-1.443-.024.014a6.682,6.682,0,0,0,.544-2.649A6.748,6.748,0,0,0,4.614,1.735,6.639,6.639,0,0,0,3.133,1.9,5.965,5.965,0,0,1,7.453.079a6.034,6.034,0,0,1,5.119,9.226l.9,2.848a.365.365,0,0,1-.128.393Z" transform="translate(1110.419 49.921)" fill="#707070"/>
    <rect id="Rectangle_4714" data-name="Rectangle 4714" width="15" height="15" transform="translate(1109 49.904)" fill="none"/>
  </g>
</svg>
