<svg id="_20x20" data-name="20x20" xmlns="http://www.w3.org/2000/svg" xmlns:xlink="http://www.w3.org/1999/xlink" width="20" height="20" viewBox="0 0 20 20">
  <defs>
    <clipPath id="clip-path">
      <rect id="Rectangle_4612" data-name="Rectangle 4612" width="20" height="20" fill="none"/>
    </clipPath>
  </defs>
  <g id="Mask_Group_309" data-name="Mask Group 309" clip-path="url(#clip-path)">
    <g id="flash-sale-2">
      <g id="Group_10830" data-name="Group 10830">
        <path id="Path_21421" data-name="Path 21421" d="M6.217,18.727l1.857-5.769H2.864a.869.869,0,0,1-.827-1.135L5.543.925a.869.869,0,0,1,.827-.6h4.577a.869.869,0,0,1,.827,1.135L9.987,7.019h5.581A.86.86,0,0,1,16.257,8.4l-8.791,11a.721.721,0,0,1-1.249-.671Z" fill="#ffae72"/>
        <path id="Path_21422" data-name="Path 21422" d="M16.255,8.4l-8.787,11a.722.722,0,0,1-1.252-.671L7.611,14.4a7.981,7.981,0,0,0,4.157-7.38h3.8a.864.864,0,0,1,.69,1.381Z" opacity="0.1"/>
        <path id="Path_21423" data-name="Path 21423" d="M6.914,20a1.064,1.064,0,0,1-.505-.131,1.018,1.018,0,0,1-.5-1.239l1.722-5.348H2.864A1.191,1.191,0,0,1,1.73,11.725L5.236.827A1.188,1.188,0,0,1,6.371,0h4.576a1.191,1.191,0,0,1,1.134,1.556L10.429,6.7h5.139a1.183,1.183,0,0,1,.947,1.893L7.718,19.6a1.023,1.023,0,0,1-.8.4Zm-.391-1.172a.4.4,0,0,0,.69.37L16,8.194a.538.538,0,0,0-.437-.853H9.987A.323.323,0,0,1,9.68,6.92l1.788-5.562a.547.547,0,0,0-.52-.714H6.371a.545.545,0,0,0-.52.379l-3.506,10.9a.546.546,0,0,0,.52.713h5.21a.322.322,0,0,1,.307.421Z" fill="#131319"/>
      </g>
      <g id="Group_10832" data-name="Group 10832">
        <path id="Path_21424" data-name="Path 21424" d="M14.325,11.237l.541.393a.744.744,0,0,0,.437.142h.669a.744.744,0,0,1,.708.514l.207.636a.744.744,0,0,0,.27.372l.541.393a.744.744,0,0,1,.27.832l-.207.636a.744.744,0,0,0,0,.46l.207.636a.744.744,0,0,1-.27.832l-.541.393a.744.744,0,0,0-.27.372l-.207.636a.744.744,0,0,1-.708.514H15.3a.744.744,0,0,0-.437.142l-.541.393a.744.744,0,0,1-.875,0l-.541-.393A.744.744,0,0,0,12.472,19H11.8a.744.744,0,0,1-.708-.514l-.207-.636a.744.744,0,0,0-.27-.372l-.541-.393a.744.744,0,0,1-.27-.832l.207-.636a.744.744,0,0,0,0-.46l-.207-.636a.744.744,0,0,1,.27-.832l.541-.393a.744.744,0,0,0,.27-.372l.207-.636a.744.744,0,0,1,.708-.514h.669a.744.744,0,0,0,.437-.142l.541-.393A.744.744,0,0,1,14.325,11.237Z" fill="#b9fff4"/>
        <g id="Group_10831" data-name="Group 10831">
          <path id="Path_21425" data-name="Path 21425" d="M13.888,20a1.064,1.064,0,0,1-.627-.2l-.541-.393a.417.417,0,0,0-.248-.081H11.8a1.065,1.065,0,0,1-1.014-.737l-.207-.636a.422.422,0,0,0-.153-.211l-.541-.393A1.062,1.062,0,0,1,9.5,16.152l.207-.636a.424.424,0,0,0,0-.261L9.5,14.619a1.063,1.063,0,0,1,.388-1.193l.541-.393a.422.422,0,0,0,.153-.211l.207-.636a1.065,1.065,0,0,1,1.014-.737h.669a.417.417,0,0,0,.248-.081l.541-.393a1.069,1.069,0,0,1,1.254,0h0l.541.393a.417.417,0,0,0,.248.081h.668a1.065,1.065,0,0,1,1.015.737l.207.636a.422.422,0,0,0,.153.211l.541.393a1.062,1.062,0,0,1,.387,1.192l-.207.636a.429.429,0,0,0,0,.261l.207.636a1.063,1.063,0,0,1-.388,1.193l-.541.393a.422.422,0,0,0-.153.211l-.207.636a1.065,1.065,0,0,1-1.015.737H15.3a.417.417,0,0,0-.247.08l-.542.393a1.063,1.063,0,0,1-.627.2ZM11.8,12.095a.42.42,0,0,0-.4.291l-.207.636a1.063,1.063,0,0,1-.387.534l-.541.393a.419.419,0,0,0-.153.471l.207.636a1.07,1.07,0,0,1,0,.659l-.207.636a.419.419,0,0,0,.152.471l.542.394a1.063,1.063,0,0,1,.387.534l.207.636a.42.42,0,0,0,.4.291h.669a1.058,1.058,0,0,1,.627.2l.541.393a.423.423,0,0,0,.5,0l.541-.393a1.054,1.054,0,0,1,.627-.2h.668a.421.421,0,0,0,.4-.291l.207-.636a1.063,1.063,0,0,1,.387-.534l.541-.393a.419.419,0,0,0,.153-.471l-.207-.636a1.07,1.07,0,0,1,0-.659l.207-.636a.419.419,0,0,0-.152-.471l-.542-.394a1.063,1.063,0,0,1-.387-.534l-.207-.636a.421.421,0,0,0-.4-.291H15.3a1.053,1.053,0,0,1-.628-.2l-.541-.393a.422.422,0,0,0-.5,0l-.541.393a1.058,1.058,0,0,1-.627.2H11.8Z" fill="#131319"/>
          <path id="Path_21426" data-name="Path 21426" d="M12.772,17.753a.323.323,0,0,1-.283-.477l2.232-4.089a.322.322,0,1,1,.566.309l-2.232,4.089a.321.321,0,0,1-.283.168Zm.037-4.363a.5.5,0,1,0,.5.5A.5.5,0,0,0,12.809,13.39Zm2.158,3a.5.5,0,1,0,.5.5A.5.5,0,0,0,14.967,16.385Z" fill="#131319"/>
        </g>
      </g>
    </g>
  </g>
</svg>
