<svg id="_15x15_photo_back" data-name="15x15 photo back" xmlns="http://www.w3.org/2000/svg" xmlns:xlink="http://www.w3.org/1999/xlink" width="15" height="15" viewBox="0 0 15 15">
  <defs>
    <clipPath id="clip-path">
      <rect id="Rectangle_4561" data-name="Rectangle 4561" width="15" height="15" fill="none"/>
    </clipPath>
  </defs>
  <g id="Mask_Group_312" data-name="Mask Group 312" clip-path="url(#clip-path)">
    <g id="sale-tag">
      <path id="Path_21432" data-name="Path 21432" d="M6.867,8.837l.579-.579L6.135,7.525Zm0,0" fill="#505050"/>
      <path id="Path_21433" data-name="Path 21433" d="M13.384,0H9.913a3.712,3.712,0,0,0-2.32.961L.472,8.082a1.62,1.62,0,0,0,0,2.286l4.16,4.16a1.62,1.62,0,0,0,2.286,0l7.121-7.121A3.712,3.712,0,0,0,15,5.087V1.616A1.618,1.618,0,0,0,13.384,0ZM6.212,11.289c-.436.436-.989.549-1.182.356a.343.343,0,0,1-.043-.423c.136-.136.483.03.822-.309.2-.2.283-.463.083-.662-.5-.5-1.415.722-2.2-.067A.992.992,0,0,1,3.832,8.71c.2-.2.679-.586.9-.366.077.076.176.283.057.4-.1.1-.306.053-.586.333-.24.24-.279.473-.12.632.413.413,1.338-.8,2.2.063A1,1,0,0,1,6.212,11.289ZM8.681,8.76c-.073.073-.153.106-.233.06L7.879,8.5l-.762.762.316.569c.047.08.013.16-.06.233-.116.117-.346.2-.453.093a.278.278,0,0,1-.027-.04L5.442,7.385a.382.382,0,0,1,.13-.423A.385.385,0,0,1,6,6.829L8.734,8.281a.208.208,0,0,1,.04.027C8.878,8.41,8.8,8.643,8.681,8.76Zm1.747-1.748L9.373,8.068c-.1.1-.236.143-.326.053L6.884,5.957c-.093-.093-.027-.24.083-.35s.256-.176.35-.083L9.237,7.445l.812-.812c.087-.087.223-.037.32.06S10.515,6.926,10.429,7.012Zm1.741-1.741L10.984,6.457c-.1.1-.236.143-.326.053L8.5,4.35c-.09-.09-.043-.23.053-.326L9.736,2.839c.093-.093.233-.04.323.05s.143.243.057.33l-.942.942.666.666.506-.506a.218.218,0,0,1,.31.037.213.213,0,0,1,.03.3l-.506.506.669.669.942-.942c.087-.087.226-.047.33.057S12.262,5.179,12.169,5.272Zm.372-2.166a.44.44,0,1,1,.129-.311A.443.443,0,0,1,12.541,3.105Zm0,0" fill="#505050"/>
    </g>
  </g>
</svg>
