<svg id="_15x15_photo_back" data-name="15x15 photo back" xmlns="http://www.w3.org/2000/svg" xmlns:xlink="http://www.w3.org/1999/xlink" width="15" height="15" viewBox="0 0 15 15">
  <defs>
    <clipPath id="clip-path">
      <rect id="Rectangle_4561" data-name="Rectangle 4561" width="15" height="15" fill="none"/>
    </clipPath>
  </defs>
  <g id="Mask_Group_297" data-name="Mask Group 297" clip-path="url(#clip-path)">
    <path id="scanner-2" d="M4.9,14.733a.371.371,0,0,1-.371.371H2.7A2.6,2.6,0,0,1,.1,12.5V10.676a.371.371,0,1,1,.743,0V12.5A1.859,1.859,0,0,0,2.7,14.361H4.532a.371.371,0,0,1,.371.371ZM12.5.1H10.676a.371.371,0,1,0,0,.743H12.5A1.859,1.859,0,0,1,14.361,2.7V4.532a.371.371,0,0,0,.743,0V2.7A2.6,2.6,0,0,0,12.5.1ZM.475,4.9a.371.371,0,0,0,.371-.371V2.7A1.859,1.859,0,0,1,2.7.847H4.532a.371.371,0,1,0,0-.743H2.7A2.6,2.6,0,0,0,.1,2.7V4.532A.371.371,0,0,0,.475,4.9Zm14.257,5.4a.371.371,0,0,0-.371.371V12.5A1.859,1.859,0,0,1,12.5,14.361H10.676a.371.371,0,1,0,0,.743H12.5a2.6,2.6,0,0,0,2.6-2.6V10.676A.371.371,0,0,0,14.733,10.3ZM6.885,4.086v1.98a.82.82,0,0,1-.819.819H4.086a.82.82,0,0,1-.819-.819V4.086a.82.82,0,0,1,.819-.819h1.98a.82.82,0,0,1,.819.819Zm-.743,0a.077.077,0,0,0-.076-.076H4.086a.077.077,0,0,0-.076.076v1.98a.077.077,0,0,0,.076.076h1.98a.077.077,0,0,0,.076-.076Zm2.18,1.98V4.086a.82.82,0,0,1,.819-.819h1.98a.82.82,0,0,1,.819.819v1.98a.82.82,0,0,1-.819.819H9.142A.82.82,0,0,1,8.323,6.066Zm.743,0a.077.077,0,0,0,.076.076h1.98a.077.077,0,0,0,.076-.076V4.086a.077.077,0,0,0-.076-.076H9.142a.077.077,0,0,0-.076.076ZM6.885,9.142v1.98a.82.82,0,0,1-.819.819H4.086a.82.82,0,0,1-.819-.819V9.142a.82.82,0,0,1,.819-.819h1.98A.82.82,0,0,1,6.885,9.142Zm-.743,0a.077.077,0,0,0-.076-.076H4.086a.077.077,0,0,0-.076.076v1.98a.077.077,0,0,0,.076.076h1.98a.077.077,0,0,0,.076-.076Zm4.979,2.8H9.142a.82.82,0,0,1-.819-.819V9.142a.82.82,0,0,1,.819-.819h1.98a.82.82,0,0,1,.819.819v1.98A.82.82,0,0,1,11.122,11.941ZM9.142,11.2h1.98a.077.077,0,0,0,.076-.076V9.142a.077.077,0,0,0-.076-.076H9.142a.077.077,0,0,0-.076.076v1.98A.077.077,0,0,0,9.142,11.2Z" transform="translate(-0.104 -0.104)" fill="#707070"/>
  </g>
</svg>
