<svg id="_20x20" data-name="20x20" xmlns="http://www.w3.org/2000/svg" xmlns:xlink="http://www.w3.org/1999/xlink" width="20" height="20" viewBox="0 0 20 20">
  <defs>
    <clipPath id="clip-path">
      <rect id="Rectangle_4612" data-name="Rectangle 4612" width="20" height="20" fill="none"/>
    </clipPath>
  </defs>
  <g id="Mask_Group_285" data-name="Mask Group 285" clip-path="url(#clip-path)">
    <g id="star-4">
      <g id="Group_10700" data-name="Group 10700">
        <g id="Group_10699" data-name="Group 10699">
          <path id="Path_21345" data-name="Path 21345" d="M19.543,9.17A1.509,1.509,0,0,0,18.706,6.6L14,5.915a.728.728,0,0,1-.548-.4l-2.1-4.261A1.5,1.5,0,0,0,10,.415h0a1.5,1.5,0,0,0-1.353.842l-2.1,4.262a.728.728,0,0,1-.548.4l-4.7.685A1.509,1.509,0,0,0,.457,9.176l.6.585A.391.391,0,0,0,1.6,9.2L1,8.616a.728.728,0,0,1,.4-1.241l4.7-.685a1.509,1.509,0,0,0,1.136-.826L9.346,1.6A.714.714,0,0,1,10,1.2h0a.714.714,0,0,1,.653.405l2.1,4.261a1.509,1.509,0,0,0,1.136.825l4.7.682A.728.728,0,0,1,19,8.611l-3.4,3.318a1.509,1.509,0,0,0-.434,1.336l.8,4.683a.728.728,0,0,1-1.056.767L10.7,16.505a1.509,1.509,0,0,0-1.4,0L5.095,18.718a.728.728,0,0,1-1.056-.767l.8-4.684a1.509,1.509,0,0,0-.434-1.336l-.483-.471a.391.391,0,1,0-.545.56l.483.471a.728.728,0,0,1,.209.644l-.8,4.684a1.507,1.507,0,0,0,2.19,1.59L9.664,17.2a.728.728,0,0,1,.677,0l4.207,2.21a1.509,1.509,0,0,0,2.189-1.591l-.8-4.683a.728.728,0,0,1,.209-.644Z" fill="#3c3c3c"/>
        </g>
      </g>
      <g id="Group_10702" data-name="Group 10702">
        <g id="Group_10701" data-name="Group 10701">
          <path id="Path_21346" data-name="Path 21346" d="M2.776,10.344a.39.39,0,1,0,.114.276A.394.394,0,0,0,2.776,10.344Z" fill="#3c3c3c"/>
        </g>
      </g>
    </g>
  </g>
</svg>
