<svg xmlns="http://www.w3.org/2000/svg" width="30" height="30" viewBox="0 0 30 30">
  <g id="Group_4775" data-name="Group 4775" transform="translate(-30 -341)">
    <path id="Path_15995" data-name="Path 15995" d="M22.945,8.159H12.181a2.924,2.924,0,0,0-3.08,2.73v5.184L6.313,17.838a.7.7,0,0,0,0,1.208l2.822,1.787a2.992,2.992,0,0,0,3.046,2.327H22.945a2.924,2.924,0,0,0,3.08-2.73V10.889A2.924,2.924,0,0,0,22.945,8.159Zm-3.619,10.43c-.2,0-.35-.055-.394-.207l-.341-1.058H16.536L16.2,18.382c-.045.151-.2.207-.395.207-.314,0-.736-.175-.736-.429a.413.413,0,0,1,.018-.08l1.731-5c.081-.239.413-.35.745-.35s.673.112.753.35l1.731,5a.317.317,0,0,1,.018.08C20.061,18.406,19.64,18.589,19.326,18.589Zm0,0" transform="translate(33.204 346.23)" fill="#404040"/>
    <path id="Path_15996" data-name="Path 15996" d="M13.53,14.754h1.092l-.546-1.927Zm0,0" transform="translate(36.79 348.099)" fill="#8e8e8e"/>
    <path id="Path_15997" data-name="Path 15997" d="M10.365,13.065a3.834,3.834,0,0,1,1.088-2.635,5.233,5.233,0,0,1-2.67-.715,5.231,5.231,0,0,1-2.671.715.424.424,0,1,1,0-.837,4.177,4.177,0,0,0,1.9-.449,3.761,3.761,0,0,1-1.226-2.3H6.112a.459.459,0,0,1-.49-.418.459.459,0,0,1,.49-.419h2.18V4.989a.5.5,0,0,1,.98,0V6.005h2.18a.459.459,0,0,1,.49.419.459.459,0,0,1-.49.418h-.675a3.761,3.761,0,0,1-1.226,2.3,4.171,4.171,0,0,0,1.9.449.465.465,0,0,1,.488.388A5.4,5.4,0,0,1,15.3,8.851h2.265V7.087L20.46,5.321a.683.683,0,0,0,0-1.208L17.531,2.327A3.086,3.086,0,0,0,14.369,0H3.2A2.994,2.994,0,0,0,0,2.73V12.27A2.994,2.994,0,0,0,3.2,15h7.168Zm0,0" transform="translate(30.042 345)" fill="#404040"/>
    <path id="Path_15998" data-name="Path 15998" d="M5.92,6.805A2.5,2.5,0,0,0,6.6,5.4H5.242A2.5,2.5,0,0,0,5.92,6.805Zm0,0" transform="translate(32.764 346.598)" fill="#8e8e8e"/>
    <rect id="Rectangle_4536" data-name="Rectangle 4536" width="30" height="30" rx="6" transform="translate(30 341)" fill="none"/>
  </g>
</svg>
