<svg xmlns="http://www.w3.org/2000/svg" width="30" height="30" viewBox="0 0 30 30">
  <g id="Group_10609" data-name="Group 10609" transform="translate(-1283 -97)">
    <g id="Group_10607" data-name="Group 10607" transform="translate(-2731 227)">
      <rect id="dd40c7fbc2671538ddfd587528b254c6" width="30" height="30" rx="10" transform="translate(4014 -130)" fill="#eae8e8"/>
      <g id="user" transform="translate(4022 -124)">
        <path id="Path_21319" data-name="Path 21319" d="M91.049,8.79A3.728,3.728,0,0,0,93.89,7.5a4.462,4.462,0,0,0,1.177-3.107A4.463,4.463,0,0,0,93.89,1.287a3.778,3.778,0,0,0-5.681,0,4.462,4.462,0,0,0-1.177,3.107A4.462,4.462,0,0,0,88.208,7.5,3.728,3.728,0,0,0,91.049,8.79Zm0,0" transform="translate(-83.929 0)" fill="#c4c2c2"/>
        <path id="Path_21320" data-name="Path 21320" d="M14.434,252.534a11.394,11.394,0,0,0-.141-1.153,9.479,9.479,0,0,0-.27-1.159,5.883,5.883,0,0,0-.453-1.081,4.064,4.064,0,0,0-.683-.937,3,3,0,0,0-.981-.649,3.242,3.242,0,0,0-1.253-.238,1.237,1.237,0,0,0-.679.3c-.2.14-.442.3-.707.48a3.955,3.955,0,0,1-.915.424,3.387,3.387,0,0,1-2.239,0A3.946,3.946,0,0,1,5.2,248.1c-.263-.177-.5-.338-.708-.48a1.235,1.235,0,0,0-.679-.3,3.238,3.238,0,0,0-1.252.239,2.992,2.992,0,0,0-.981.649,4.063,4.063,0,0,0-.683.936,5.894,5.894,0,0,0-.453,1.081,9.5,9.5,0,0,0-.269,1.159,11.354,11.354,0,0,0-.141,1.153c-.023.349-.035.712-.035,1.078A3.115,3.115,0,0,0,.855,255.9a2.992,2.992,0,0,0,2.2.846H11.41a2.991,2.991,0,0,0,2.2-.846,3.113,3.113,0,0,0,.855-2.292C14.469,253.244,14.458,252.881,14.434,252.534Zm0,0" transform="translate(0 -238.876)" fill="#c4c2c2"/>
      </g>
    </g>
  </g>
</svg>
