<svg id="_20x20" data-name="20x20" xmlns="http://www.w3.org/2000/svg" xmlns:xlink="http://www.w3.org/1999/xlink" width="15" height="15" viewBox="0 0 15 15">
  <defs>
    <clipPath id="clip-path">
      <rect id="Rectangle_4612" data-name="Rectangle 4612" width="15" height="15" fill="none"/>
    </clipPath>
  </defs>
  <g id="Mask_Group_303" data-name="Mask Group 303" clip-path="url(#clip-path)">
    <g id="Mask_Group_300" data-name="Mask Group 300" clip-path="url(#clip-path)">
      <g id="whatsapp-5" transform="translate(0 0.006)">
        <g id="Group_10739" data-name="Group 10739" transform="translate(3.723 3.544)">
          <g id="Group_10738" data-name="Group 10738">
            <path id="Path_21407" data-name="Path 21407" d="M7.575,3.551a3.841,3.841,0,0,0-3.852,3.83,3.8,3.8,0,0,0,.737,2.25l-.488,1.425L5.46,10.58a3.877,3.877,0,0,0,6-3.2A3.868,3.868,0,0,0,7.575,3.551Zm2.26,5.412a1.173,1.173,0,0,1-.761.535c-.2.024-.2.167-1.356-.274A4.637,4.637,0,0,1,5.791,7.535a2.123,2.123,0,0,1-.464-1.153,1.22,1.22,0,0,1,.392-.928.45.45,0,0,1,.3-.143c.075,0,.154.012.214.012.075,0,.155-.036.25.19s.321.773.345.832a.213.213,0,0,1,.012.191,1.534,1.534,0,0,1-.107.19c-.059.059-.119.142-.167.191s-.119.119-.047.225a3.814,3.814,0,0,0,.631.773,3.286,3.286,0,0,0,.9.559c.107.059.178.047.238-.024a3.569,3.569,0,0,0,.357-.44c.075-.107.155-.1.25-.059s.654.309.773.369.19.083.214.131a.816.816,0,0,1-.047.512Z" transform="translate(-3.723 -3.55)" fill="#35ce3f"/>
          </g>
        </g>
        <g id="Group_10741" data-name="Group 10741">
          <g id="Group_10740" data-name="Group 10740">
            <path id="Path_21408" data-name="Path 21408" d="M11.229.006H3.759A3.767,3.767,0,0,0,0,3.765V11.25A3.764,3.764,0,0,0,3.759,15h7.482A3.767,3.767,0,0,0,15,11.235V3.765A3.785,3.785,0,0,0,11.229.006ZM7.575,11.937a4.55,4.55,0,0,1-2.225-.571l-2.543.808L3.64,9.736a4.6,4.6,0,1,1,3.938,2.2Z" transform="translate(0 -0.006)" fill="#35ce3f"/>
          </g>
        </g>
      </g>
    </g>
  </g>
</svg>
