<svg xmlns="http://www.w3.org/2000/svg" width="20" height="20" viewBox="0 0 20 20">
  <path id="woman" d="M16.659,15.042l-3.191-.8-.184-.737a10.572,10.572,0,0,0,3.389-1.06.416.416,0,0,0,.2-.333.422.422,0,0,0-.159-.356c-.015-.01-1.5-1.239-1.5-5.5,0-3.591-.841-5.412-2.5-5.412h-.25A2.664,2.664,0,0,0,10.209.016c-1.566,0-5,1.578-5,6.245,0,4.259-1.489,5.488-1.5,5.5a.416.416,0,0,0,.035.69,10.371,10.371,0,0,0,3.388,1.061l-.184.736-3.19.8A4.674,4.674,0,0,0,.206,19.583.416.416,0,0,0,.622,20H19.79a.416.416,0,0,0,.416-.416,4.674,4.674,0,0,0-3.547-4.541Z" transform="translate(-0.206 0.001)" fill="#c4c2c2"/>
</svg>
