<svg xmlns="http://www.w3.org/2000/svg" width="14.841" height="1.852" viewBox="0 0 14.841 1.852">
  <path id="Path_21306" data-name="Path 21306" d="M5.762,2.788c-.473,0-.966-.022-1.464-.066a.185.185,0,0,1,.032-.369c.487.043.969.065,1.431.065.486,0,.989-.024,1.495-.071a.185.185,0,0,1,.034.369C6.773,2.764,6.259,2.788,5.762,2.788Zm-4.37-.54a.186.186,0,0,1-.042,0C.439,2.034-.5,1.769-1.518,1.432A.185.185,0,0,1-1.635,1.2.185.185,0,0,1-1.4,1.081c1.008.333,1.935.595,2.834.8a.185.185,0,0,1-.041.366Zm8.8-.036a.185.185,0,0,1-.045-.365,22.275,22.275,0,0,0,2.8-.9.185.185,0,1,1,.136.344,22.648,22.648,0,0,1-2.843.913A.186.186,0,0,1,10.191,2.212Z" transform="translate(1.645 -0.936)"/>
</svg>
