<svg xmlns="http://www.w3.org/2000/svg" xmlns:xlink="http://www.w3.org/1999/xlink" width="136.5" height="38.812" viewBox="0 0 136.5 38.812">
  <defs>
    <clipPath id="clip-path">
      <rect id="Rectangle_4613" data-name="Rectangle 4613" width="132" height="30" fill="none"/>
    </clipPath>
    <filter id="Path_21301" x="44.472" y="18.475" width="13.409" height="13.409" filterUnits="userSpaceOnUse">
      <feOffset dy="2" input="SourceAlpha"/>
      <feGaussianBlur stdDeviation="1" result="blur"/>
      <feFlood flood-opacity="0.2"/>
      <feComposite operator="in" in2="blur"/>
      <feComposite in="SourceGraphic"/>
    </filter>
    <filter id="Path_21301-2" x="44.472" y="18.475" width="13.409" height="13.409" filterUnits="userSpaceOnUse">
      <feOffset dy="3" input="SourceAlpha"/>
      <feGaussianBlur stdDeviation="2" result="blur-2"/>
      <feFlood flood-color="#fff" flood-opacity="0.302" result="color"/>
      <feComposite operator="out" in="SourceGraphic" in2="blur-2"/>
      <feComposite operator="in" in="color"/>
      <feComposite operator="in" in2="SourceGraphic"/>
    </filter>
    <linearGradient id="linear-gradient" x1="0.5" y1="0.543" x2="0.5" gradientUnits="objectBoundingBox">
      <stop offset="0" stop-color="#f53c3c"/>
      <stop offset="1" stop-color="#ff9696"/>
    </linearGradient>
    <filter id="Path_21331" x="0" y="0" width="38.812" height="38.812" filterUnits="userSpaceOnUse">
      <feOffset dy="3" input="SourceAlpha"/>
      <feGaussianBlur stdDeviation="1.5" result="blur-3"/>
      <feFlood flood-opacity="0.2"/>
      <feComposite operator="in" in2="blur-3"/>
      <feComposite in="SourceGraphic"/>
    </filter>
  </defs>
  <g id="Group_10616" data-name="Group 10616" transform="translate(4.5 1.313)">
    <g id="Group_10601" data-name="Group 10601" transform="translate(0 0)">
      <g id="Group_10600" data-name="Group 10600" transform="translate(27.576 4.632)">
        <g class="logoline" id="Group_10513" data-name="Group 10513" transform="translate(0 13.531)">
          <path id="Path_21306" data-name="Path 21306" d="M5.762,2.788c-.473,0-.966-.022-1.464-.066a.185.185,0,0,1,.032-.369c.487.043.969.065,1.431.065.486,0,.989-.024,1.495-.071a.185.185,0,0,1,.034.369C6.773,2.764,6.259,2.788,5.762,2.788Zm-4.37-.54a.186.186,0,0,1-.042,0C.439,2.034-.5,1.769-1.518,1.432A.185.185,0,0,1-1.635,1.2.185.185,0,0,1-1.4,1.081c1.008.333,1.935.595,2.834.8a.185.185,0,0,1-.041.366Zm8.8-.036a.185.185,0,0,1-.045-.365,22.275,22.275,0,0,0,2.8-.9.185.185,0,1,1,.136.344,22.648,22.648,0,0,1-2.843.913A.186.186,0,0,1,10.191,2.212Z" transform="translate(1.645 4.806)"/>
          <g data-type="innerShadowGroup">
            <g transform="matrix(1, 0, 0, 1, -32.08, -19.48)" filter="url(#Path_21301)">
              <path id="Path_21301-3" data-name="Path 21301" d="M3.7,7.409a3.7,3.7,0,1,1,3.7-3.7A3.7,3.7,0,0,1,3.7,7.409Z" transform="translate(47.47 19.48)"/>
            </g>
            <g transform="matrix(1, 0, 0, 1, -32.08, -19.48)" filter="url(#Path_21301-2)">
              <path id="Path_21301-4" data-name="Path 21301" d="M3.7,7.409a3.7,3.7,0,1,1,3.7-3.7A3.7,3.7,0,0,1,3.7,7.409Z" transform="translate(47.47 19.48)" fill="#fff"/>
            </g>
          </g>
        </g>
        <path id="Path_21308" data-name="Path 21308" d="M1.7-17.415H7a1.215,1.215,0,0,1,.894.356,1.205,1.205,0,0,1,.358.89,1.143,1.143,0,0,1-.358.857A1.236,1.236,0,0,1,7-14.966H1.7a1.215,1.215,0,0,1-.894-.356,1.205,1.205,0,0,1-.358-.89,1.143,1.143,0,0,1,.358-.857A1.236,1.236,0,0,1,1.7-17.415ZM4.093-20.2a1.249,1.249,0,0,1,.95.389,1.354,1.354,0,0,1,.369.968v9.9a.965.965,0,0,0,.123.512.705.705,0,0,0,.335.289,1.173,1.173,0,0,0,.458.089,1.188,1.188,0,0,0,.492-.1,1.245,1.245,0,0,1,.514-.1.754.754,0,0,1,.57.289,1.165,1.165,0,0,1,.257.8A1.176,1.176,0,0,1,7.478-6.13a2.84,2.84,0,0,1-1.464.4,7.728,7.728,0,0,1-1.039-.078A2.815,2.815,0,0,1,3.9-6.186a2.318,2.318,0,0,1-.838-.924A3.649,3.649,0,0,1,2.73-8.823V-18.839a1.312,1.312,0,0,1,.391-.968A1.323,1.323,0,0,1,4.093-20.2ZM12.5-5.73a1.286,1.286,0,0,1-.961-.389,1.332,1.332,0,0,1-.38-.968V-16.28a1.332,1.332,0,0,1,.38-.968,1.286,1.286,0,0,1,.961-.389,1.286,1.286,0,0,1,.961.389,1.332,1.332,0,0,1,.38.968v2.092l-.156-1.491a3.466,3.466,0,0,1,.637-.946,3.776,3.776,0,0,1,.883-.69,4.019,4.019,0,0,1,1.05-.412,4.792,4.792,0,0,1,1.117-.134,1.714,1.714,0,0,1,1.129.378,1.127,1.127,0,0,1,.458.89,1.317,1.317,0,0,1-.38,1.057,1.252,1.252,0,0,1-.827.323,1.859,1.859,0,0,1-.771-.156,1.916,1.916,0,0,0-.793-.156,1.949,1.949,0,0,0-.816.189,2.245,2.245,0,0,0-.76.59,3.1,3.1,0,0,0-.559.99,4.109,4.109,0,0,0-.212,1.391v5.275a1.332,1.332,0,0,1-.38.968A1.286,1.286,0,0,1,12.5-5.73ZM30.173-17.637a1.286,1.286,0,0,1,.961.389,1.332,1.332,0,0,1,.38.968V-6.82a6.023,6.023,0,0,1-.771,3.261,4.379,4.379,0,0,1-2.067,1.747,7.561,7.561,0,0,1-2.905.534,11.115,11.115,0,0,1-1.52-.111,5.14,5.14,0,0,1-1.319-.334A1.906,1.906,0,0,1,22-2.447a1.087,1.087,0,0,1-.1-.924,1.4,1.4,0,0,1,.648-.879,1.12,1.12,0,0,1,.939-.056q.358.111.939.345a3.574,3.574,0,0,0,1.341.234A4.551,4.551,0,0,0,27.48-4a1.973,1.973,0,0,0,1.028-.935,3.872,3.872,0,0,0,.346-1.792V-8.223l.469.534a3.9,3.9,0,0,1-.95,1.213,3.875,3.875,0,0,1-1.352.723,5.985,5.985,0,0,1-1.788.245,3.853,3.853,0,0,1-2.067-.545,3.713,3.713,0,0,1-1.374-1.513A4.824,4.824,0,0,1,21.3-9.781v-6.5a1.332,1.332,0,0,1,.38-.968,1.286,1.286,0,0,1,.961-.389,1.286,1.286,0,0,1,.961.389,1.332,1.332,0,0,1,.38.968v5.7a2.691,2.691,0,0,0,.637,2.037,2.516,2.516,0,0,0,1.777.59,2.664,2.664,0,0,0,1.319-.3,2,2,0,0,0,.827-.89,3.225,3.225,0,0,0,.291-1.436v-5.7a1.332,1.332,0,0,1,.38-.968A1.286,1.286,0,0,1,30.173-17.637ZM44.537-22.2a.64.64,0,0,1,.483.195.664.664,0,0,1,.187.479V-6.4a.652.652,0,0,1-.2.476.643.643,0,0,1-.475.2.636.636,0,0,1-.483-.2.667.667,0,0,1-.187-.476V-9.046l.391-.317a2.95,2.95,0,0,1-.338,1.319,4.448,4.448,0,0,1-.95,1.255,4.9,4.9,0,0,1-1.43.929,4.413,4.413,0,0,1-1.768.353,4.827,4.827,0,0,1-2.685-.773A5.437,5.437,0,0,1,35.2-8.4a6.534,6.534,0,0,1-.693-3.044,6.547,6.547,0,0,1,.693-3.049,5.389,5.389,0,0,1,1.88-2.106,4.819,4.819,0,0,1,2.668-.765,4.7,4.7,0,0,1,1.757.331,4.776,4.776,0,0,1,1.464.91,4.44,4.44,0,0,1,1,1.319,3.459,3.459,0,0,1,.366,1.552l-.469-.345v-7.935A.667.667,0,0,1,44.054-22,.636.636,0,0,1,44.537-22.2ZM39.889-6.754A3.734,3.734,0,0,0,42-7.36a4.153,4.153,0,0,0,1.436-1.669,5.391,5.391,0,0,0,.522-2.409,5.351,5.351,0,0,0-.522-2.407,4.142,4.142,0,0,0-1.444-1.661,3.745,3.745,0,0,0-2.106-.607,3.707,3.707,0,0,0-2.084.607,4.2,4.2,0,0,0-1.453,1.661,5.28,5.28,0,0,0-.531,2.407,5.281,5.281,0,0,0,.531,2.393A4.254,4.254,0,0,0,37.8-7.368,3.671,3.671,0,0,0,39.889-6.754Zm19.918-4.668a6.169,6.169,0,0,1-.74,3.033,5.558,5.558,0,0,1-2.014,2.112,5.47,5.47,0,0,1-2.888.771,5.482,5.482,0,0,1-2.88-.771,5.6,5.6,0,0,1-2.031-2.112,6.114,6.114,0,0,1-.749-3.033,6.148,6.148,0,0,1,.749-3.049,5.621,5.621,0,0,1,2.031-2.114,5.467,5.467,0,0,1,2.88-.773,5.454,5.454,0,0,1,2.888.773,5.579,5.579,0,0,1,2.014,2.114A6.2,6.2,0,0,1,59.806-11.422Zm-1.341,0a5.081,5.081,0,0,0-.559-2.42A4.3,4.3,0,0,0,56.376-15.5a4.079,4.079,0,0,0-2.212-.609,4.091,4.091,0,0,0-2.2.609,4.341,4.341,0,0,0-1.548,1.661,5.02,5.02,0,0,0-.567,2.42,4.972,4.972,0,0,0,.567,2.4,4.341,4.341,0,0,0,1.548,1.661,4.091,4.091,0,0,0,2.2.609,4.079,4.079,0,0,0,2.212-.609,4.3,4.3,0,0,0,1.531-1.661A5.033,5.033,0,0,0,58.465-11.422ZM62.46-7.527a.9.9,0,0,1-.159-.526.539.539,0,0,1,.271-.42.577.577,0,0,1,.416-.122.651.651,0,0,1,.439.228,4.641,4.641,0,0,0,1.455,1.252,4.179,4.179,0,0,0,2.048.473,4.052,4.052,0,0,0,1.249-.209,2.361,2.361,0,0,0,1.014-.64,1.582,1.582,0,0,0,.4-1.116,1.518,1.518,0,0,0-.4-1.1,2.9,2.9,0,0,0-1.042-.665,10.906,10.906,0,0,0-1.36-.428q-.76-.2-1.469-.453a5.235,5.235,0,0,1-1.263-.643,3.031,3.031,0,0,1-.883-.951,2.639,2.639,0,0,1-.33-1.358,2.753,2.753,0,0,1,.508-1.641,3.36,3.36,0,0,1,1.394-1.11,4.823,4.823,0,0,1,2-.4,5.655,5.655,0,0,1,1.218.142,4.964,4.964,0,0,1,1.268.476,3.926,3.926,0,0,1,1.129.918.6.6,0,0,1,.2.442.615.615,0,0,1-.232.47.646.646,0,0,1-.413.125.536.536,0,0,1-.386-.175,3.393,3.393,0,0,0-1.268-.913,4.128,4.128,0,0,0-1.6-.306,3.616,3.616,0,0,0-1.212.2,2.235,2.235,0,0,0-.95.626,1.617,1.617,0,0,0-.374,1.113,1.543,1.543,0,0,0,.444,1.054,3.117,3.117,0,0,0,1.1.673,15.494,15.494,0,0,0,1.536.492,13.489,13.489,0,0,1,1.372.415,4.667,4.667,0,0,1,1.157.6,2.705,2.705,0,0,1,.8.926,2.959,2.959,0,0,1,.3,1.4,2.7,2.7,0,0,1-.545,1.694,3.464,3.464,0,0,1-1.458,1.088,5.259,5.259,0,0,1-2.031.378,6.106,6.106,0,0,1-2.335-.465A4.989,4.989,0,0,1,62.46-7.527Z" transform="translate(33.452 22.2)"/>
      </g>
    </g>
    <g class="logocircle"  transform="matrix(1, 0, 0, 1, -4.5, -1.31)" filter="url(#Path_21331)">
      <path class="logocircle" id="Path_21331-2" data-name="Path 21331" d="M14.906,0A14.906,14.906,0,1,0,29.812,14.906,14.906,14.906,0,0,0,14.906,0Z" transform="translate(4.5 1.5)" fill="url(#linear-gradient)"/>
    </g>
  </g>
</svg>
