<svg id="_25x25_Back" data-name="25x25 Back" xmlns="http://www.w3.org/2000/svg" xmlns:xlink="http://www.w3.org/1999/xlink" width="25" height="25" viewBox="0 0 25 25">
  <g id="Mask_Group_313" data-name="Mask Group 313">
    <path id="follow-us" d="M3.821,7.082a4.676,4.676,0,1,1,4.674,4.679A5.057,5.057,0,0,1,7.72,11.7a4.624,4.624,0,0,1-.53-.123,4.355,4.355,0,0,1-.6-.216,4.651,4.651,0,0,1-.966-.584h0a4.661,4.661,0,0,1-1.8-3.693ZM15.2,22.9c-.069-.088-.137-.172-.2-.26-.039-.054-.074-.113-.113-.172a2.543,2.543,0,0,1-.152-.245c-.034-.059-.069-.123-.1-.186-.044-.083-.088-.172-.123-.255-.029-.064-.054-.128-.083-.2-.034-.088-.069-.177-.1-.27-.025-.064-.039-.128-.064-.2-.029-.1-.049-.2-.074-.289a1.875,1.875,0,0,1-.039-.191c-.025-.108-.039-.216-.054-.329,0-.054-.015-.108-.025-.162-.015-.162-.025-.329-.025-.5,0-.108,0-.211.01-.319a.881.881,0,0,1,.01-.108c0-.069.01-.137.02-.206,0-.039.01-.078.015-.123s.02-.123.029-.181.015-.088.025-.132.025-.113.039-.172.025-.088.034-.132.029-.113.044-.162l.044-.132c.02-.054.034-.108.054-.157s.034-.088.054-.132.044-.1.064-.152.039-.088.059-.128l.074-.147c.025-.039.039-.083.069-.123s.054-.093.083-.142l.074-.118c.029-.049.059-.093.093-.142s.054-.074.078-.113.074-.093.108-.137.054-.069.078-.1.083-.1.123-.142.049-.059.078-.088c.054-.059.113-.118.172-.177l.044-.044c.074-.074.152-.142.226-.206a.773.773,0,0,1,.074-.059c.049-.039.1-.083.147-.118-.034-.069-.069-.137-.108-.206-.054-.1-.108-.2-.162-.289-.069-.118-.142-.235-.216-.348-.059-.093-.123-.181-.186-.275a4.056,4.056,0,0,0-.25-.324c-.069-.088-.132-.172-.206-.255a4.106,4.106,0,0,0-.28-.3c-.074-.078-.147-.157-.226-.231-.1-.1-.206-.191-.309-.28L13.9,12.84c-.113-.093-.235-.177-.353-.26-.078-.059-.157-.118-.235-.172-.137-.088-.275-.172-.417-.255-.074-.039-.137-.088-.216-.128q-.324-.177-.662-.324-.162-.074-.324-.132c-.029.025-.069.044-.1.069-.054.039-.113.074-.172.113a2.274,2.274,0,0,1-.206.123c-.059.034-.118.069-.177.1s-.142.074-.221.108c-.059.029-.118.054-.177.078s-.152.059-.226.093-.123.044-.181.064c-.078.029-.157.049-.24.074-.059.015-.118.034-.181.049-.088.02-.172.034-.26.054-.059.01-.113.025-.172.034-.1.015-.2.029-.294.034-.049,0-.1.015-.142.02-.152.01-.3.015-.446.015s-.3,0-.446-.015c-.049,0-.1-.015-.147-.02-.1-.01-.2-.02-.289-.034-.059-.01-.113-.025-.172-.034-.088-.015-.172-.034-.26-.054-.059-.015-.118-.034-.177-.049-.078-.025-.162-.044-.24-.074a1.369,1.369,0,0,1-.181-.069c-.078-.029-.152-.054-.226-.088s-.118-.054-.181-.078-.142-.069-.216-.108-.118-.064-.177-.1-.137-.078-.206-.123-.113-.074-.172-.113a.7.7,0,0,1-.1-.069A8.16,8.16,0,0,0,.049,19.181a8.322,8.322,0,0,0,.2,1.8A3.355,3.355,0,0,0,3.541,23.61h9.917a3.4,3.4,0,0,0,1.864-.564l-.015-.015-.1-.132ZM16.273,7.563a3.751,3.751,0,0,0,.745.446,3.593,3.593,0,0,0,.873.265,3.993,3.993,0,0,0,.6.049,3.6,3.6,0,0,0,3.6-3.6,3.6,3.6,0,1,0-5.817,2.84ZM23.228,17.99a4.339,4.339,0,0,1-7,4.8,4.337,4.337,0,0,1,3-7.474,4.229,4.229,0,0,1,.966.108q.206.051.412.118a4.337,4.337,0,0,1,2.163,1.6l.177.265A4.967,4.967,0,0,1,23.228,17.99Zm-1.295,1.668a.548.548,0,0,0-.549-.549H19.77V17.494a.549.549,0,1,0-1.1,0v1.614H17.058a.549.549,0,0,0,0,1.1h1.614V21.82a.549.549,0,1,0,1.1,0V20.206h1.614A.548.548,0,0,0,21.933,19.657Zm-.912-11.3-.059.039c-.044.029-.088.054-.132.078s-.113.074-.177.108l-.132.074c-.059.029-.118.059-.181.088L20.2,8.8c-.064.025-.123.049-.191.074-.049.015-.093.034-.137.049-.069.025-.132.039-.2.059-.049.015-.093.029-.137.039l-.211.044c-.044.01-.088.015-.132.025l-.235.029-.118.015c-.118.01-.235.015-.358.015s-.24,0-.358-.015L18,9.122c-.078-.01-.157-.015-.235-.029-.049-.01-.093-.015-.137-.025l-.206-.044c-.049-.01-.093-.025-.142-.039a1.49,1.49,0,0,1-.2-.059c-.049-.015-.093-.034-.142-.049L16.759,8.8c-.049-.02-.093-.039-.137-.059l-.181-.088-.132-.074c-.059-.034-.118-.069-.177-.108S16.043,8.421,16,8.4a.409.409,0,0,0-.059-.039,6.4,6.4,0,0,0-3.2,2.766l.025.015c.191.093.378.2.559.3.025.015.049.029.069.039.181.108.358.226.53.343.029.025.064.044.093.069.172.123.334.25.5.383a.853.853,0,0,1,.074.064c.162.137.324.284.476.432l0,0c.157.152.3.309.446.476a.982.982,0,0,1,.069.078c.137.157.265.319.387.486.025.034.049.069.074.1.123.172.24.343.353.52.015.025.029.049.039.069.108.181.216.363.309.549,0,.01.015.025.02.034L16.94,15a.793.793,0,0,0,.088-.049c.108-.049.216-.093.319-.132l.078-.029.255-.088c.039-.01.078-.025.118-.034l.221-.059.132-.029c.074-.015.142-.029.221-.039.044-.01.088-.015.132-.025.078-.01.157-.015.235-.025a.8.8,0,0,1,.113-.01c.118-.01.235-.01.353-.01s.255,0,.373.015a1.032,1.032,0,0,0,.123.01c.078.01.162.015.245.029.049.01.093.015.142.025.074.015.142.025.216.039.054.01.1.025.152.034s.137.034.206.054.1.029.152.049.132.044.2.069.1.039.147.059.128.054.191.078.1.044.142.069.123.059.181.093.093.054.137.078l.177.108c.044.029.088.054.132.088s.113.078.172.123c.039.029.083.059.123.093s.113.093.162.137.074.064.113.1.108.1.162.157a.881.881,0,0,1,.1.093c.059.064.118.132.177.2.02.025.044.049.064.074.078.093.152.191.226.289.015.025.029.044.044.069.054.078.108.157.157.24.025.039.039.078.064.118l.1.177a2.013,2.013,0,0,0,.2-.142,2.579,2.579,0,0,0,.907-1.447A6.3,6.3,0,0,0,21.021,8.357Z" transform="translate(-0.049 -0.058)" fill="#d3d3d3"/>
  </g>
</svg>
