<svg id="_15x15" data-name="15x15" xmlns="http://www.w3.org/2000/svg" xmlns:xlink="http://www.w3.org/1999/xlink" width="15" height="15" viewBox="0 0 15 15">
  <g id="Mask_Group_318" data-name="Mask Group 318" >
    <g id="Mask_Group_273" data-name="Mask Group 273" >
      <g id="voice-search" transform="translate(-21.526)">
        <path id="Path_15710" data-name="Path 15710" d="M112.35,10.575A3.08,3.08,0,0,0,115.425,7.5V3.075a3.075,3.075,0,1,0-6.15,0V7.5a3.08,3.08,0,0,0,3.075,3.075Z" transform="translate(-83.328)" fill="#8e8d92"/>
        <path id="Path_15711" data-name="Path 15711" d="M75.083,152.7a.439.439,0,0,0-.439.439v.878a3.955,3.955,0,0,1-7.91,0v-.878a.439.439,0,1,0-.878,0v.878a4.84,4.84,0,0,0,4.394,4.813v1.809h-2.2a.44.44,0,1,0,0,.878h5.272a.439.439,0,0,0,0-.878h-2.2v-1.809a4.84,4.84,0,0,0,4.394-4.814v-.878a.439.439,0,0,0-.44-.439Z" transform="translate(-41.664 -146.518)" fill="#8e8d92"/>
        <path id="Path_15712" data-name="Path 15712" d="M66.3,36.365a.44.44,0,0,0,.439-.439v-2.2a.44.44,0,0,0-.878,0v2.2a.439.439,0,0,0,.439.44Z" transform="translate(-41.664 -31.943)" fill="#8e8d92"/>
        <path id="Path_15713" data-name="Path 15713" d="M22.875,0a.44.44,0,0,0-.44.44V5.3a.439.439,0,1,0,.878,0V.44A.44.44,0,0,0,22.875,0Z" fill="#8e8d92"/>
        <path id="Path_15714" data-name="Path 15714" d="M283.4,33.29a.44.44,0,0,0-.44.439v2.2a.44.44,0,0,0,.878,0v-2.2a.44.44,0,0,0-.44-.439Z" transform="translate(-249.984 -31.943)" fill="#8e8d92"/>
        <path id="Path_15715" data-name="Path 15715" d="M326.825,0a.44.44,0,0,0-.44.44V5.3a.439.439,0,1,0,.878,0V.44A.439.439,0,0,0,326.825,0Z" transform="translate(-291.648)" fill="#8e8d92"/>
      </g>
    </g>
  </g>
</svg>
