<svg xmlns="http://www.w3.org/2000/svg" width="24.999" height="24.999" viewBox="0 0 24.999 24.999">
  <g id="Layer_x0020_1" transform="translate(-0.924 -1)">
    <path id="Path_21334" data-name="Path 21334" d="M19.629,136.358c-5.856,0-15.208-8.746-17.914-15.271-1.1-2.648-1.05-4.766.121-6.156l6.075,6.092a2.464,2.464,0,0,0,.162,1.956c1.212,2.931,5.366,6.537,7.535,6.537a1.389,1.389,0,0,0,.646-.138l6.087,6.081A4.131,4.131,0,0,1,19.629,136.358ZM2.3,114.452,4.052,112.7a2.389,2.389,0,0,1,3.375,0l2.694,2.689a2.375,2.375,0,0,1,0,3.352l-1.777,1.777Zm14.464,14.493,1.783-1.783a2.375,2.375,0,0,1,3.352,0l2.689,2.694a2.385,2.385,0,0,1,0,3.369L22.82,135Z" transform="translate(0 -110.36)" fill="#38ff9c" fill-rule="evenodd"/>
    <path id="Path_21335" data-name="Path 21335" d="M2374.037,12.371a.332.332,0,0,1-.329-.329,10.391,10.391,0,0,0-10.379-10.379.332.332,0,0,1,0-.663,11.051,11.051,0,0,1,11.042,11.043A.334.334,0,0,1,2374.037,12.371Z" transform="translate(-2348.448)" fill="#38ff9c" fill-rule="evenodd"/>
    <path id="Path_21336" data-name="Path 21336" d="M2370.869,558.2a.334.334,0,0,1-.335-.329,7.212,7.212,0,0,0-7.206-7.206.335.335,0,0,1,0-.669,7.88,7.88,0,0,1,7.869,7.875A.325.325,0,0,1,2370.869,558.2Z" transform="translate(-2348.448 -545.833)" fill="#38ff9c" fill-rule="evenodd"/>
    <path id="Path_21337" data-name="Path 21337" d="M2367.7,1105.031a.329.329,0,0,1-.329-.329,4.043,4.043,0,0,0-4.038-4.039.332.332,0,0,1,0-.663,4.706,4.706,0,0,1,4.7,4.7A.334.334,0,0,1,2367.7,1105.031Z" transform="translate(-2348.448 -1092.659)" fill="#38ff9c" fill-rule="evenodd"/>
  </g>
</svg>
