<svg xmlns="http://www.w3.org/2000/svg" width="50" height="40" viewBox="0 0 50 40">
  <g id="Group_10659" data-name="Group 10659" transform="translate(-284 -408)">
    <g id="Rectangle_4224" data-name="Rectangle 4224" transform="translate(284 408)" fill="#f0f0f0" stroke="#404040" stroke-width="0.4">
      <rect width="50" height="40" rx="15" stroke="none"/>
      <rect x="0.2" y="0.2" width="49.6" height="39.6" rx="14.8" fill="none"/>
    </g>
    <path id="Path_15783" data-name="Path 15783" d="M31.479,71.143h-2c-.316,0,0-.684,0-1s-.316,0,0,0h2c.316,0,1-.316,1,0A1.577,1.577,0,0,1,31.479,71.143Z" transform="translate(275.521 373.857)" fill="#404040"/>
    <path id="Path_15785" data-name="Path 15785" d="M41.721,71.143h-2c-.316,0,0-.684,0-1s-.316,0,0,0h2c.316,0,0-.316,0,0S42.036,71.143,41.721,71.143Z" transform="translate(271.279 373.857)" fill="#404040"/>
    <path id="Path_15786" data-name="Path 15786" d="M28.023,40.571a13.316,13.316,0,0,1-13-13,13.316,13.316,0,0,1,13-13c6.943,0,12,6.057,12,13S34.963,40.563,28.023,40.571Zm0-24c-6.312,0-12,4.688-12,11s5.688,11,12,11a10.711,10.711,0,0,0,11-11A10.723,10.723,0,0,0,28.023,16.571Z" transform="translate(280.977 400.429)" fill="#404040"/>
    <path id="Path_15787" data-name="Path 15787" d="M32.734,38.286c-3.472,0-7-2.528-7-6s3.528-6,7-6a5.809,5.809,0,0,1,6,6A5.816,5.816,0,0,1,32.734,38.286Zm0-11c-2.84,0-6,2.16-6,5s3.16,5,6,5a5,5,0,0,0,0-10Z" transform="translate(276.266 395.714)" fill="#404040"/>
    <path id="Path_15788" data-name="Path 15788" d="M59.051,14.054a3.519,3.519,0,0,1-3-3c0-1.341,1.659-2,3-2a1.762,1.762,0,0,1,2,2C61.049,12.394,60.391,14.052,59.051,14.054Zm0-4c-.71,0-2,.29-2,1a2.844,2.844,0,0,0,2,2c.71,0,1-1.29,1-2S59.761,10.054,59.051,10.054Z" transform="translate(264.949 403.946)" fill="#404040"/>
  </g>
</svg>
