<svg id="_20X20_photo_Back" data-name="20X20 photo Back" xmlns="http://www.w3.org/2000/svg" xmlnsXlink="http://www.w3.org/1999/xlink" width="20" height="20" viewBox="0 0 20 20">
            <g id="Mask_Group_311" data-name="Mask Group 311">
              <g id="notebook-of-contacts">
                <path id="Path_21348" data-name="Path 21348" d="M4.769,10A.769.769,0,0,1,4,10.769H2.462A.769.769,0,0,1,1.692,10h0a.769.769,0,0,1,.769-.769H4A.769.769,0,0,1,4.769,10Zm0-4.923A.769.769,0,0,0,4,4.308H2.462a.769.769,0,0,0-.769.769h0a.769.769,0,0,0,.769.769H4a.769.769,0,0,0,.769-.769Zm0,9.846A.769.769,0,0,0,4,14.154H2.462a.769.769,0,0,0-.769.769h0a.769.769,0,0,0,.769.769H4a.769.769,0,0,0,.769-.769ZM18.308,2.462V17.538A2.462,2.462,0,0,1,15.846,20H5.077a2.462,2.462,0,0,1-2.462-2.462V16.308H4a1.385,1.385,0,0,0,0-2.769H2.615V11.385H4A1.385,1.385,0,1,0,4,8.615H2.615V6.461H4A1.385,1.385,0,1,0,4,3.692H2.615V2.462A2.462,2.462,0,0,1,5.077,0H15.846A2.462,2.462,0,0,1,18.308,2.462ZM8.55,7.3a2.374,2.374,0,1,0,2.374-2.374A2.374,2.374,0,0,0,8.55,7.3Zm6.066,5.8a2.637,2.637,0,0,0-2.637-2.637H9.868A2.638,2.638,0,0,0,7.231,13.1v1.055h7.385Z" fill="#5d5d5d" />
              </g>
            </g>
          </svg>