<svg xmlns="http://www.w3.org/2000/svg" width="25" height="25" viewBox="0 0 25 25">
  <g id="Group_10704" data-name="Group 10704" transform="translate(-203 -825)">
    <rect id="Rectangle_4627" data-name="Rectangle 4627" width="25" height="25" transform="translate(203 825)" fill="none"/>
    <g id="Group_10703" data-name="Group 10703" transform="translate(0.193)">
      <path id="Path_21388" data-name="Path 21388" d="M5.716.388c5.918,0,15.369,8.839,18.1,15.433,1.108,2.676,1.061,4.816-.122,6.221l-6.139-6.157a2.49,2.49,0,0,0-.163-1.976C16.169,10.946,11.972,7.3,9.779,7.3a1.4,1.4,0,0,0-.653.14L2.975,1.3A4.175,4.175,0,0,1,5.716.388ZM23.23,22.526,21.458,24.3a2.414,2.414,0,0,1-3.411,0l-2.723-2.717a2.4,2.4,0,0,1,0-3.387l1.8-1.8ZM8.613,7.88l-1.8,1.8a2.4,2.4,0,0,1-3.387,0L.707,6.959a2.41,2.41,0,0,1,0-3.4l1.784-1.79Z" transform="translate(202.997 824.997)" fill="#ff5f61" fill-rule="evenodd"/>
      <g id="Group_10702" data-name="Group 10702" transform="translate(204 841)">
        <line id="Line_905" data-name="Line 905" x2="8" y2="8" fill="none" stroke="#ff5f61" stroke-linecap="round" stroke-width="1"/>
        <line id="Line_906" data-name="Line 906" y1="8" x2="8" fill="none" stroke="#ff5f61" stroke-linecap="round" stroke-width="1"/>
      </g>
    </g>
  </g>
</svg>
