<svg xmlns="http://www.w3.org/2000/svg" width="15" height="15" viewBox="0 0 15 15">
  <g id="go-back-arrow" transform="translate(0 -1.717)">
    <path id="Path_21430" data-name="Path 21430" d="M2.468,4.676c-.2.286-.346.338-.346.1V4.333a1.1,1.1,0,0,0-1.061-1.14A1.1,1.1,0,0,0,0,4.333V8.241A1.1,1.1,0,0,0,1.061,9.38H4.7A1.143,1.143,0,0,0,4.7,7.1H4.3c-.217,0-.278-.266-.094-.567A4.5,4.5,0,0,1,8.02,4.322a4.74,4.74,0,0,1,4.556,4.9,4.74,4.74,0,0,1-4.556,4.9,1.306,1.306,0,0,0,0,2.6A7.262,7.262,0,0,0,15,9.217a7.263,7.263,0,0,0-6.98-7.5A6.844,6.844,0,0,0,2.468,4.676Z" transform="translate(0 0)" fill="#3c3c3c"/>
  </g>
</svg>
