<svg xmlns="http://www.w3.org/2000/svg" width="10" height="10" viewBox="0 0 10 10">
  <g id="go-back-arrow" transform="translate(0 -1.717)">
    <path id="Path_21430" data-name="Path 21430" d="M1.645,3.69c-.135.191-.231.225-.231.064V3.461A.735.735,0,0,0,.707,2.7.735.735,0,0,0,0,3.461v2.6a.735.735,0,0,0,.707.76H3.131a.762.762,0,0,0,0-1.52H2.87c-.144,0-.185-.177-.063-.378A3,3,0,0,1,5.347,3.453,3.16,3.16,0,0,1,8.384,6.717,3.16,3.16,0,0,1,5.347,9.98a.871.871,0,0,0,0,1.737,4.841,4.841,0,0,0,4.653-5,4.842,4.842,0,0,0-4.653-5A4.563,4.563,0,0,0,1.645,3.69Z" fill="#3c3c3c"/>
  </g>
</svg>
