<svg id="_15x15" data-name="15x15" xmlns="http://www.w3.org/2000/svg" xmlns:xlink="http://www.w3.org/1999/xlink" width="15" height="15" viewBox="0 0 15 15">
  <g id="Mask_Group_316" data-name="Mask Group 316" >
    <g id="Mask_Group_272" data-name="Mask Group 272" >
      <g id="photo-camera" transform="translate(0 -29.091)">
        <g id="Group_3488" data-name="Group 3488" transform="translate(0 30.089)">
          <path id="Path_14690" data-name="Path 14690" d="M14.411,32.675A1.927,1.927,0,0,0,13,32.089H11.25l-.4-1.062a1.451,1.451,0,0,0-.543-.658,1.392,1.392,0,0,0-.809-.278h-4a1.391,1.391,0,0,0-.809.277,1.451,1.451,0,0,0-.543.658l-.4,1.062H2a1.927,1.927,0,0,0-1.414.586A1.927,1.927,0,0,0,0,34.092v7a1.927,1.927,0,0,0,.586,1.414A1.927,1.927,0,0,0,2,43.092H13a2,2,0,0,0,2-2v-7a1.927,1.927,0,0,0-.59-1.417ZM9.969,40.062A3.371,3.371,0,0,1,7.5,41.09a3.37,3.37,0,0,1-2.475-1.027,3.489,3.489,0,0,1,0-4.945A3.371,3.371,0,0,1,7.5,34.089a3.37,3.37,0,0,1,2.47,1.028,3.489,3.489,0,0,1,0,4.945Z" transform="translate(0 -30.089)" fill="#8e8d92"/>
          <path id="Path_14691" data-name="Path 14691" d="M160.237,188.081a2.254,2.254,0,1,0,1.59.658A2.167,2.167,0,0,0,160.237,188.081Z" transform="translate(-152.738 -182.833)" fill="#8e8d92"/>
        </g>
      </g>
    </g>
  </g>
</svg>
