<svg xmlns="http://www.w3.org/2000/svg" width="25.5" height="25.5" viewBox="0 0 25.5 25.5">
  <g id="search-3" transform="translate(0.25 0.25)">
    <g id="Group_3684" data-name="Group 3684" transform="translate(17.819 5.414)">
      <g id="Group_3683" data-name="Group 3683">
        <path id="Path_15701" data-name="Path 15701" d="M77.249,111.247a.926.926,0,0,1,1.31,0,6.33,6.33,0,0,1,1.811,5.131.926.926,0,0,1-.921.834c-.031,0-.062,0-.093,0a.926.926,0,0,1-.83-1.014,4.485,4.485,0,0,0-1.277-3.637A.926.926,0,0,1,77.249,111.247Z" transform="translate(-76.978 -110.976)" fill="#388cff"/>
      </g>
    </g>
    <g id="Group_3686" data-name="Group 3686" transform="translate(3.819 0)">
      <g id="Group_3685" data-name="Group 3685">
        <path id="Path_15702" data-name="Path 15702" d="M10.59,0A10.59,10.59,0,1,1,0,10.59,10.6,10.6,0,0,1,10.59,0Zm0,19.328A8.738,8.738,0,1,0,1.853,10.59,8.747,8.747,0,0,0,10.59,19.328Z" fill="none" stroke="#388cff" stroke-width="0.5"/>
      </g>
    </g>
    <g id="Group_3688" data-name="Group 3688" transform="translate(0 16.417)">
      <g id="Group_3687" data-name="Group 3687">
        <path id="Path_15703" data-name="Path 15703" d="M336.98,343.712l6.731-6.731a.926.926,0,0,1,1.31,1.31l-6.731,6.731a.926.926,0,1,1-1.31-1.31Z" transform="translate(-336.708 -336.71)" fill="none" stroke="#388cff" stroke-width="0.5"/>
      </g>
    </g>
  </g>
</svg>
