<svg xmlns="http://www.w3.org/2000/svg" width="20" height="20" viewBox="0 0 20 20">
  <g id="search-3" transform="translate(0 0)">
    <g id="Group_3684" data-name="Group 3684" transform="translate(14.255 4.331)">
      <g id="Group_3683" data-name="Group 3683">
        <path id="Path_15701" data-name="Path 15701" d="M77.195,111.193a.741.741,0,0,1,1.048,0,5.064,5.064,0,0,1,1.448,4.1.741.741,0,0,1-.737.667c-.025,0-.05,0-.074,0a.741.741,0,0,1-.664-.811,3.588,3.588,0,0,0-1.022-2.91A.741.741,0,0,1,77.195,111.193Z" transform="translate(-76.978 -110.976)" fill="#d3d3d3"/>
      </g>
    </g>
    <g id="Group_3686" data-name="Group 3686" transform="translate(3.056 0)">
      <g id="Group_3685" data-name="Group 3685">
        <path id="Path_15702" data-name="Path 15702" d="M8.472,0A8.472,8.472,0,1,1,0,8.472,8.482,8.482,0,0,1,8.472,0Zm0,15.462a6.99,6.99,0,1,0-6.99-6.99A7,7,0,0,0,8.472,15.462Z" fill="#d3d3d3"/>
      </g>
    </g>
    <g id="Group_3688" data-name="Group 3688" transform="translate(0 13.133)">
      <g id="Group_3687" data-name="Group 3687">
        <path id="Path_15703" data-name="Path 15703" d="M336.926,342.311l5.385-5.385a.741.741,0,0,1,1.048,1.048l-5.385,5.385a.741.741,0,0,1-1.048-1.048Z" transform="translate(-336.708 -336.71)" fill="#d3d3d3"/>
      </g>
    </g>
  </g>
</svg>
