<svg id="_20x20" data-name="20x20" xmlns="http://www.w3.org/2000/svg" xmlns:xlink="http://www.w3.org/1999/xlink" width="20" height="20" viewBox="0 0 20 20">
  <g id="Mask_Group_289" data-name="Mask Group 289">
    <g id="Group_10631" data-name="Group 10631" transform="translate(-2964.74 -12650.527)">
      <g id="Group_8323" data-name="Group 8323" transform="translate(2965.887 12650.553)">
        <g id="Group_9803" data-name="Group 9803">
          <path id="Path_20951" data-name="Path 20951" d="M45.09,13.952a5.558,5.558,0,0,1-1.94-4.232v-2.3a5.762,5.762,0,0,0-4.9-5.713v-.9a.817.817,0,1,0-1.63,0v.892a5.76,5.76,0,0,0-4.9,5.713V9.724a5.563,5.563,0,0,1-1.95,4.237A1.448,1.448,0,0,0,30.7,16.5h13.47a1.438,1.438,0,0,0,1.427-1.445,1.455,1.455,0,0,0-.506-1.106Zm0,0" transform="translate(-28.458 0.031)" fill="#505050"/>
          <path id="Path_20952" data-name="Path 20952" d="M217.583,617.48A3.1,3.1,0,0,0,220.618,615h-6.067A3.1,3.1,0,0,0,217.583,617.48Zm0,0" transform="translate(-208.6 -597.86)" fill="#505050"/>
        </g>
      </g>
      <line id="Line_896" data-name="Line 896" x2="13.994" y2="17.493" transform="translate(2967.686 12651.805)" fill="none" stroke="#ff6c6c" stroke-linecap="round" stroke-width="1.749"/>
    </g>
  </g>
</svg>
