<svg xmlns="http://www.w3.org/2000/svg" xmlns:xlink="http://www.w3.org/1999/xlink" width="25" height="31.5" viewBox="0 0 25 31.5">
  <g id="voice" transform="translate(15.428)">
    <path id="Path_15741" data-name="Path 15741" d="M95.468,245.259a.732.732,0,0,0,.519-.215,6.474,6.474,0,0,0,0-9.145.734.734,0,0,0-1.038,1.038,5,5,0,0,1,0,7.068.734.734,0,0,0,.519,1.253Z" transform="translate(-91.98 -233.48)" fill="#388cff"/>
    <path id="Path_15742" data-name="Path 15742" d="M170.875,287a.732.732,0,0,0,.519-.215,3.267,3.267,0,0,0,0-4.615.734.734,0,0,0-1.038,1.038,1.8,1.8,0,0,1,0,2.538.734.734,0,0,0,.519,1.254Z" transform="translate(-170.141 -277.485)" fill="#388cff"/>
    <path id="Path_15743" data-name="Path 15743" d="M20.433,204.654a.732.732,0,0,0,.519-.215,9.594,9.594,0,0,0,0-13.552.734.734,0,0,0-1.038,1.038,8.123,8.123,0,0,1,0,11.475.734.734,0,0,0,.519,1.253Z" transform="translate(-14.182 -190.672)" fill="#388cff"/>
  </g>
  <g id="_20x20" data-name="20x20" transform="translate(0 11.5)">
    <g id="Mask_Group_285" data-name="Mask Group 285">
      <g id="microphone" transform="translate(3.6)">
        <g id="Group_10646" data-name="Group 10646" transform="translate(0 9.624)">
          <g id="Group_10645" data-name="Group 10645">
            <path id="Path_21353" data-name="Path 21353" d="M16.4,10.329a.706.706,0,1,0-1.412,0,4.988,4.988,0,1,1-9.976,0,.706.706,0,0,0-1.412,0,6.4,6.4,0,0,0,5.694,6.376v1.882H6.729a.706.706,0,1,0,0,1.412h6.541a.706.706,0,1,0,0-1.412H10.706V16.706A6.4,6.4,0,0,0,16.4,10.329Z" transform="translate(-3.6 -9.624)"/>
          </g>
        </g>
        <g id="Group_10648" data-name="Group 10648" transform="translate(2.471)">
          <g id="Group_10647" data-name="Group 10647">
            <path id="Path_21354" data-name="Path 21354" d="M10,0A3.936,3.936,0,0,0,6.071,3.929v6.376a3.929,3.929,0,1,0,7.859.024v-6.4A3.936,3.936,0,0,0,10,0Z" transform="translate(-6.071)"/>
          </g>
        </g>
      </g>
    </g>
  </g>
</svg>
