<svg xmlns="http://www.w3.org/2000/svg" width="10.642" height="10.627" viewBox="0 0 10.642 10.627">
  <g id="Group_10641" data-name="Group 10641" transform="translate(0.299 0.312)">
    <path id="Path_15157" data-name="Path 15157" d="M9.882,36.536l-3.75-4.287c-.262-.3-.711-.088-.711.337v1.908A5.827,5.827,0,0,0,.263,39.109,8.485,8.485,0,0,0,0,41.5c0,.092,0,.118,0,.138a.411.411,0,0,0,.775.244,7.136,7.136,0,0,1,1.569-2.09,3.917,3.917,0,0,1,3.073-1.08v2.45c0,.424.449.637.711.337l3.75-4.287A.526.526,0,0,0,9.882,36.536Z" transform="translate(0 -32.109)" fill="none" stroke="#3c3c3c" stroke-width="0.6"/>
  </g>
</svg>
