<svg id="_15x15" data-name="15x15" xmlns="http://www.w3.org/2000/svg" xmlns:xlink="http://www.w3.org/1999/xlink" width="15" height="15" viewBox="0 0 15 15">
  <g id="Mask_Group_317" data-name="Mask Group 317" >
    <g id="Mask_Group_274" data-name="Mask Group 274" >
      <g id="XMLID_822_" transform="translate(-0.625 204.774)">
        <path id="XMLID_823_" d="M14.415,29.6c-.542-.644-1.541-.906-3.45-.906H4.034c-1.95,0-2.969.28-3.509.965C0,30.331,0,31.313,0,32.677v2.6c0,2.639.625,3.979,4.034,3.979h6.93c1.656,0,2.573-.232,3.167-.8S15,36.921,15,35.274v-2.6C15,31.241,14.959,30.25,14.415,29.6ZM9.63,34.335,6.48,35.98a.484.484,0,0,1-.705-.43V32.272a.484.484,0,0,1,.707-.43l3.15,1.634a.484.484,0,0,1,0,.858Z" transform="translate(0.625 -231.25)" fill="#8e8d92"/>
      </g>
    </g>
  </g>
</svg>
