<svg xmlns="http://www.w3.org/2000/svg" width="39.24" height="19.62" viewBox="0 0 39.24 19.62">
  <g id="voice-message" transform="translate(0 -12.379)">
    <path id="Path_15753" data-name="Path 15753" d="M.654,369.55A.654.654,0,0,1,0,368.9v-1.308a.654.654,0,0,1,1.308,0V368.9A.654.654,0,0,1,.654,369.55Zm0,0" transform="translate(0 -346.053)" fill="#007cff"/>
    <path id="Path_15754" data-name="Path 15754" d="M26.255,362.323a.654.654,0,0,1-.654-.654v-2.616a.654.654,0,1,1,1.308,0v2.616A.654.654,0,0,1,26.255,362.323Zm0,0" transform="translate(-23.639 -338.172)" fill="#007cff"/>
    <path id="Path_15755" data-name="Path 15755" d="M128.654,362.323a.654.654,0,0,1-.654-.654v-2.616a.654.654,0,1,1,1.308,0v2.616A.654.654,0,0,1,128.654,362.323Zm0,0" transform="translate(-118.19 -338.172)" fill="#007cff"/>
    <path id="Path_15756" data-name="Path 15756" d="M60.388,347.872a.654.654,0,0,1-.654-.654v-5.232a.654.654,0,1,1,1.308,0v5.232A.654.654,0,0,1,60.388,347.872Zm0,0" transform="translate(-55.156 -322.413)" fill="#007cff"/>
    <path id="Path_15757" data-name="Path 15757" d="M94.521,347.872a.654.654,0,0,1-.654-.654v-5.232a.654.654,0,1,1,1.308,0v5.232A.654.654,0,0,1,94.521,347.872Zm0,0" transform="translate(-86.673 -322.413)" fill="#007cff"/>
    <path id="Path_15758" data-name="Path 15758" d="M162.787,333.422a.654.654,0,0,1-.654-.654V324.92a.654.654,0,1,1,1.308,0v7.848A.654.654,0,0,1,162.787,333.422Zm0,0" transform="translate(-149.707 -306.655)" fill="#007cff"/>
    <path id="Path_15759" data-name="Path 15759" d="M196.92,318.971a.654.654,0,0,1-.654-.654V307.853a.654.654,0,1,1,1.308,0v10.464A.654.654,0,0,1,196.92,318.971Zm0,0" transform="translate(-181.224 -290.896)" fill="#007cff"/>
    <path id="Path_15760" data-name="Path 15760" d="M231.053,275.62a.654.654,0,0,1-.654-.654V256.654a.654.654,0,1,1,1.308,0v18.312A.654.654,0,0,1,231.053,275.62Zm0,0" transform="translate(-212.74 -243.621)" fill="#007cff"/>
    <path id="Path_15761" data-name="Path 15761" d="M495.587,369.55a.654.654,0,0,1-.654-.654v-1.308a.654.654,0,0,1,1.308,0V368.9A.654.654,0,0,1,495.587,369.55Zm0,0" transform="translate(-457.001 -346.053)" fill="#007cff"/>
    <path id="Path_15762" data-name="Path 15762" d="M469.986,362.323a.654.654,0,0,1-.654-.654v-2.616a.654.654,0,1,1,1.308,0v2.616A.654.654,0,0,1,469.986,362.323Zm0,0" transform="translate(-433.362 -338.172)" fill="#007cff"/>
    <path id="Path_15763" data-name="Path 15763" d="M367.587,362.323a.654.654,0,0,1-.654-.654v-2.616a.654.654,0,1,1,1.308,0v2.616A.654.654,0,0,1,367.587,362.323Zm0,0" transform="translate(-338.811 -338.172)" fill="#007cff"/>
    <path id="Path_15764" data-name="Path 15764" d="M435.853,347.872a.654.654,0,0,1-.654-.654v-5.232a.654.654,0,1,1,1.308,0v5.232A.654.654,0,0,1,435.853,347.872Zm0,0" transform="translate(-401.845 -322.413)" fill="#007cff"/>
    <path id="Path_15765" data-name="Path 15765" d="M401.721,347.872a.654.654,0,0,1-.654-.654v-5.232a.654.654,0,1,1,1.308,0v5.232A.654.654,0,0,1,401.721,347.872Zm0,0" transform="translate(-370.328 -322.413)" fill="#007cff"/>
    <path id="Path_15766" data-name="Path 15766" d="M333.455,333.422a.654.654,0,0,1-.654-.654V324.92a.654.654,0,1,1,1.308,0v7.848A.654.654,0,0,1,333.455,333.422Zm0,0" transform="translate(-307.295 -306.655)" fill="#007cff"/>
    <path id="Path_15767" data-name="Path 15767" d="M299.322,318.971a.654.654,0,0,1-.654-.654V307.853a.654.654,0,1,1,1.308,0v10.464A.654.654,0,0,1,299.322,318.971Zm0,0" transform="translate(-275.778 -290.896)" fill="#007cff"/>
    <path id="Path_15768" data-name="Path 15768" d="M265.189,275.62a.654.654,0,0,1-.654-.654V256.654a.654.654,0,1,1,1.308,0v18.312A.654.654,0,0,1,265.189,275.62Zm0,0" transform="translate(-244.261 -243.621)" fill="#007cff"/>
  </g>
</svg>
