<svg xmlns="http://www.w3.org/2000/svg" width="25" height="25" viewBox="0 0 25 25">
  <path id="chat-4" d="M23.013,19.747A11.339,11.339,0,0,0,25,13.342C25,6.812,19.392,1.5,12.5,1.5S0,6.812,0,13.342,5.607,25.184,12.5,25.184a12.985,12.985,0,0,0,5.1-1.03A21.438,21.438,0,0,0,24.525,26.5a.368.368,0,0,0,.058,0,.415.415,0,0,0,.373-.243.456.456,0,0,0-.078-.506C23.919,24.743,23.259,22.614,23.013,19.747ZM17.85,23.29h0c-.879-.571-1.861-1.234-2.09-1.425a.4.4,0,0,0-.557-.127.454.454,0,0,0-.2.378c0,.258,0,.338,1.7,1.454a12.216,12.216,0,0,1-4.2.737C6.067,24.307.833,19.388.833,13.342S6.067,2.377,12.5,2.377,24.166,7.3,24.166,13.342a10.448,10.448,0,0,1-1.917,6.019.453.453,0,0,0-.08.3A14.847,14.847,0,0,0,23.6,25.43,18.847,18.847,0,0,1,17.85,23.29Z" transform="translate(0 -1.5)" fill="#8d8d8d"/>
</svg>
