<svg xmlns="http://www.w3.org/2000/svg" width="25" height="25" viewBox="0 0 25 25">
  <g id="Group_10602" data-name="Group 10602" transform="translate(-205.369 -302.351)">
    <g id="Layer_x0020_1" transform="translate(205.369 302.351)">
      <path id="Path_21334" data-name="Path 21334" d="M19.326,136.21c-2.715,0-6.411-1.883-10.139-5.167a29.939,29.939,0,0,1-7.716-10.011c-1.112-2.685-1.057-4.867.158-6.31l.173-.205L8.1,120.828l-.083.16a2.224,2.224,0,0,0,.168,1.716,12.45,12.45,0,0,0,3.288,4.207,7.252,7.252,0,0,0,3.9,2.074,1.122,1.122,0,0,0,.523-.109l.16-.082,6.308,6.3-.209.172A4.314,4.314,0,0,1,19.326,136.21ZM1.841,115.251c-.924,1.3-.9,3.221.085,5.592a29.875,29.875,0,0,0,7.587,9.83c3.639,3.206,7.216,5.044,9.814,5.044a3.916,3.916,0,0,0,2.3-.665l-5.672-5.667a1.721,1.721,0,0,1-.58.091c-1.06,0-2.638-.82-4.222-2.195a12.954,12.954,0,0,1-3.42-4.389A2.877,2.877,0,0,1,7.5,120.93Zm20.625,19.721-6.309-6.3,1.928-1.928a2.557,2.557,0,0,1,1.82-.753,2.584,2.584,0,0,1,1.825.752l2.647,2.652a2.593,2.593,0,0,1,0,3.663Zm-5.613-6.3,5.613,5.607,1.563-1.568a2.1,2.1,0,0,0,0-2.968l-2.646-2.651a2.094,2.094,0,0,0-1.478-.609,2.068,2.068,0,0,0-1.472.609Zm-8.631-7.946-6.3-6.315,1.9-1.9a2.6,2.6,0,0,1,3.669,0l2.651,2.645a2.583,2.583,0,0,1,0,3.646Zm-5.6-6.314,5.6,5.618L9.8,118.453a2.091,2.091,0,0,0,0-2.95l-2.651-2.645a2.1,2.1,0,0,0-2.973,0Z" transform="translate(-0.676 -111.21)" fill="#388cff"/>
      <path id="Path_21335" data-name="Path 21335" d="M2374.037,12.521a.485.485,0,0,1-.479-.479,10.241,10.241,0,0,0-10.229-10.229.482.482,0,0,1,0-.963,11.205,11.205,0,0,1,11.192,11.193A.482.482,0,0,1,2374.037,12.521ZM2363.329,1.15a.182.182,0,0,0,0,.363,10.541,10.541,0,0,1,10.529,10.529.182.182,0,0,0,.364,0A10.9,10.9,0,0,0,2363.329,1.15Z" transform="translate(-2349.521 -0.85)" fill="#388cff"/>
      <path id="Path_21336" data-name="Path 21336" d="M2370.869,558.354a.482.482,0,0,1-.485-.479,7.064,7.064,0,0,0-7.056-7.056.485.485,0,0,1,0-.969,8.031,8.031,0,0,1,8.019,8.025.456.456,0,0,1-.131.332A.486.486,0,0,1,2370.869,558.354Zm-7.541-8.2a.185.185,0,0,0,0,.369,7.364,7.364,0,0,1,7.356,7.356A.185.185,0,0,0,2371,558a.162.162,0,0,0,.047-.118A7.732,7.732,0,0,0,2363.329,550.15Z" transform="translate(-2349.521 -546.683)" fill="#388cff"/>
      <path id="Path_21337" data-name="Path 21337" d="M2367.7,1105.181a.479.479,0,0,1-.479-.479,3.893,3.893,0,0,0-3.888-3.889.482.482,0,0,1,0-.963,4.857,4.857,0,0,1,4.852,4.852A.482.482,0,0,1,2367.7,1105.181Zm-4.367-5.031a.182.182,0,0,0,0,.363,4.193,4.193,0,0,1,4.188,4.189.179.179,0,0,0,.179.179.184.184,0,0,0,.185-.179A4.557,4.557,0,0,0,2363.329,1100.15Z" transform="translate(-2349.396 -1093.635)" fill="#388cff"/>
    </g>
  </g>
</svg>
