<svg xmlns="http://www.w3.org/2000/svg" width="25.8" height="25.8" viewBox="0 0 25.8 25.8">
  <g id="Group_3723" data-name="Group 3723" transform="translate(-331.6 -145.6)">
    <g id="Group_3721" data-name="Group 3721">
      <path id="Path_15728" data-name="Path 15728" d="M12.5,0A12.5,12.5,0,1,0,25,12.5" transform="translate(332 146)" fill="none" stroke="#8d8d8d" stroke-linecap="round" stroke-width="0.8"/>
      <g id="Group_3720" data-name="Group 3720">
        <g id="Group_3718" data-name="Group 3718" transform="translate(335.412 149)">
          <path id="Path_15726" data-name="Path 15726" d="M0,21.588a9.088,9.088,0,0,1,18.176,0" transform="translate(0 -12.5)" fill="none" stroke="#8d8d8d" stroke-linecap="round" stroke-width="0.8"/>
          <path id="Path_15727" data-name="Path 15727" d="M0,21.588A9.088,9.088,0,0,0,9.088,12.5" transform="translate(9.088 -3.412)" fill="none" stroke="#8d8d8d" stroke-linecap="round" stroke-width="0.8"/>
        </g>
        <g id="Group_3719" data-name="Group 3719" transform="translate(338.391 152)">
          <path id="Path_15726-2" data-name="Path 15726" d="M12.22,12.5A6.11,6.11,0,0,1,0,12.5" transform="translate(0 -6.39)" fill="none" stroke="#8d8d8d" stroke-linecap="round" stroke-width="0.8"/>
          <path id="Path_15727-2" data-name="Path 15727" d="M6.11,12.5A6.11,6.11,0,0,0,0,18.61" transform="translate(0 -12.5)" fill="none" stroke="#8d8d8d" stroke-linecap="round" stroke-width="0.8"/>
        </g>
      </g>
    </g>
  </g>
</svg>
